<svg xmlns="http://www.w3.org/2000/svg" viewBox="0 0 740 372" width="1110" height="558">
<rect x="0" y="0" width="740" height="372" fill="#0d1117"/>
<rect x="8" y="6" width="724" height="360" fill="#161b22" rx="8"/>
<text x="20" y="28" fill="#d2991d" font-size="16" font-family="monospace" text-anchor="start" font-weight="bold">🌲 淘汰赛对阵图 · Knockout Bracket</text>
<text x="20" y="46" fill="#8b949e" font-size="10" font-family="monospace" text-anchor="start">R32 对阵 · 真实小组排名自动生成</text>
<text x="70" y="72" fill="#58a6ff" font-size="10" font-family="monospace" text-anchor="middle" font-weight="bold">32强</text>
<text x="210" y="72" fill="#58a6ff" font-size="10" font-family="monospace" text-anchor="middle" font-weight="bold">16强</text>
<text x="350" y="72" fill="#58a6ff" font-size="10" font-family="monospace" text-anchor="middle" font-weight="bold">8强</text>
<text x="490" y="72" fill="#58a6ff" font-size="10" font-family="monospace" text-anchor="middle" font-weight="bold">半决赛</text>
<text x="630" y="72" fill="#58a6ff" font-size="10" font-family="monospace" text-anchor="middle" font-weight="bold">决赛</text>
<text x="70" y="104" fill="#e6edf3" font-size="10" font-family="monospace" text-anchor="end">🇲🇽 墨西哥</text>
<text x="70" y="146" fill="#e6edf3" font-size="10" font-family="monospace" text-anchor="end">🇨🇦 加拿大</text>
<text x="78" y="90" fill="#8b949e" font-size="8" font-family="monospace" text-anchor="start">6/28</text>
<line x1="110" y1="104" x2="130" y2="104" stroke="#30363d" stroke-width="1"/>
<line x1="110" y1="146" x2="130" y2="146" stroke="#30363d" stroke-width="1"/>
<path d="M130 104 L145 104 Q150 104 150 132 L150 132" fill="none" stroke="#30363d" stroke-width="1"/>
<path d="M130 146 L145 146 Q150 146 150 132" fill="none" stroke="#30363d" stroke-width="1"/>
<text x="165" y="137" fill="#8b949e" font-size="10" font-family="monospace" text-anchor="middle">?</text>
<path d="M190 132 L205 132 Q210 132 210 195" fill="none" stroke="#30363d" stroke-width="1"/>
<path d="M190 258 L205 258 Q210 258 210 195" fill="none" stroke="#30363d" stroke-width="1"/>
<text x="70" y="188" fill="#e6edf3" font-size="10" font-family="monospace" text-anchor="end">🇩🇪 德国</text>
<text x="70" y="230" fill="#e6edf3" font-size="10" font-family="monospace" text-anchor="end">🇯🇵 日本</text>
<text x="78" y="174" fill="#8b949e" font-size="8" font-family="monospace" text-anchor="start">6/28</text>
<line x1="110" y1="188" x2="130" y2="188" stroke="#30363d" stroke-width="1"/>
<line x1="110" y1="230" x2="130" y2="230" stroke="#30363d" stroke-width="1"/>
<path d="M130 188 L145 188 Q150 188 150 216 L150 216" fill="none" stroke="#30363d" stroke-width="1"/>
<path d="M130 230 L145 230 Q150 230 150 216" fill="none" stroke="#30363d" stroke-width="1"/>
<text x="165" y="221" fill="#8b949e" font-size="10" font-family="monospace" text-anchor="middle">?</text>
<text x="70" y="272" fill="#e6edf3" font-size="10" font-family="monospace" text-anchor="end">🇫🇷 法国</text>
<text x="70" y="314" fill="#e6edf3" font-size="10" font-family="monospace" text-anchor="end">🇦🇹 奥地利</text>
<text x="78" y="258" fill="#8b949e" font-size="8" font-family="monospace" text-anchor="start">6/29</text>
<line x1="110" y1="272" x2="130" y2="272" stroke="#30363d" stroke-width="1"/>
<line x1="110" y1="314" x2="130" y2="314" stroke="#30363d" stroke-width="1"/>
<path d="M130 272 L145 272 Q150 272 150 300 L150 300" fill="none" stroke="#30363d" stroke-width="1"/>
<path d="M130 314 L145 314 Q150 314 150 300" fill="none" stroke="#30363d" stroke-width="1"/>
<text x="165" y="305" fill="#8b949e" font-size="10" font-family="monospace" text-anchor="middle">?</text>
<text x="70" y="356" fill="#e6edf3" font-size="10" font-family="monospace" text-anchor="end">🇨🇭 瑞士</text>
<text x="70" y="398" fill="#e6edf3" font-size="10" font-family="monospace" text-anchor="end">🇿🇦 南非</text>
<text x="78" y="342" fill="#8b949e" font-size="8" font-family="monospace" text-anchor="start">6/29</text>
<line x1="110" y1="356" x2="130" y2="356" stroke="#30363d" stroke-width="1"/>
<line x1="110" y1="398" x2="130" y2="398" stroke="#30363d" stroke-width="1"/>
<path d="M130 356 L145 356 Q150 356 150 384 L150 384" fill="none" stroke="#30363d" stroke-width="1"/>
<path d="M130 398 L145 398 Q150 398 150 384" fill="none" stroke="#30363d" stroke-width="1"/>
<text x="165" y="389" fill="#8b949e" font-size="10" font-family="monospace" text-anchor="middle">?</text>
<text x="70" y="440" fill="#e6edf3" font-size="10" font-family="monospace" text-anchor="end">🇳🇱 荷兰</text>
<text x="70" y="482" fill="#e6edf3" font-size="10" font-family="monospace" text-anchor="end">🇨🇮 科特迪瓦</text>
<text x="78" y="426" fill="#8b949e" font-size="8" font-family="monospace" text-anchor="start">6/30</text>
<line x1="110" y1="440" x2="130" y2="440" stroke="#30363d" stroke-width="1"/>
<line x1="110" y1="482" x2="130" y2="482" stroke="#30363d" stroke-width="1"/>
<path d="M130 440 L145 440 Q150 440 150 468 L150 468" fill="none" stroke="#30363d" stroke-width="1"/>
<path d="M130 482 L145 482 Q150 482 150 468" fill="none" stroke="#30363d" stroke-width="1"/>
<text x="165" y="473" fill="#8b949e" font-size="10" font-family="monospace" text-anchor="middle">?</text>
<text x="70" y="524" fill="#e6edf3" font-size="10" font-family="monospace" text-anchor="end">🇦🇷 阿根廷</text>
<text x="70" y="566" fill="#e6edf3" font-size="10" font-family="monospace" text-anchor="end">🇳🇴 挪威</text>
<text x="78" y="510" fill="#8b949e" font-size="8" font-family="monospace" text-anchor="start">6/30</text>
<line x1="110" y1="524" x2="130" y2="524" stroke="#30363d" stroke-width="1"/>
<line x1="110" y1="566" x2="130" y2="566" stroke="#30363d" stroke-width="1"/>
<path d="M130 524 L145 524 Q150 524 150 552 L150 552" fill="none" stroke="#30363d" stroke-width="1"/>
<path d="M130 566 L145 566 Q150 566 150 552" fill="none" stroke="#30363d" stroke-width="1"/>
<text x="165" y="557" fill="#8b949e" font-size="10" font-family="monospace" text-anchor="middle">?</text>
<text x="720" y="360" fill="#8b949e" font-size="8" font-family="monospace" text-anchor="end">更新 2026-06-26 11:18 CST · 自动生成</text>
</svg>