<svg xmlns="http://www.w3.org/2000/svg" viewBox="0 0 400 682" width="600" height="1023">
<rect x="0" y="0" width="400" height="682" fill="#0d1117"/>
<rect x="8" y="6" width="384" height="670" fill="#161b22" rx="8"/>
<text x="20" y="28" fill="#d2991d" font-size="16" font-family="monospace" text-anchor="start" font-weight="bold">🌲 淘汰赛对阵图 · Knockout Bracket</text>
<text x="20" y="48" fill="#8b949e" font-size="10" font-family="monospace" text-anchor="start">R32 对阵 · 小组排名自动生成    每组前2晋级 → R16</text>
<text x="20" y="86" fill="#e6edf3" font-size="11" font-family="monospace" text-anchor="start">🇲🇽 墨西哥</text>
<text x="20" y="104" fill="#e6edf3" font-size="11" font-family="monospace" text-anchor="start">🇨🇦 加拿大</text>
<text x="180" y="86" fill="#8b949e" font-size="8" font-family="monospace" text-anchor="end">6/28</text>
<text x="20" y="128" fill="#e6edf3" font-size="11" font-family="monospace" text-anchor="start">🇧🇷 巴西</text>
<text x="20" y="146" fill="#e6edf3" font-size="11" font-family="monospace" text-anchor="start">🇦🇺 澳大利亚</text>
<text x="180" y="128" fill="#8b949e" font-size="8" font-family="monospace" text-anchor="end">6/28</text>
<line x1="195" y1="86" x2="210" y2="86" stroke="#30363d" stroke-width="1"/>
<line x1="195" y1="104" x2="210" y2="104" stroke="#30363d" stroke-width="1"/>
<line x1="195" y1="128" x2="210" y2="128" stroke="#30363d" stroke-width="1"/>
<line x1="195" y1="146" x2="210" y2="146" stroke="#30363d" stroke-width="1"/>
<path d="M210 86 L225 86 Q230 86 230 110 L230 110" fill="none" stroke="#30363d" stroke-width="1"/>
<path d="M210 104 L225 104 Q230 104 230 110" fill="none" stroke="#30363d" stroke-width="1"/>
<path d="M210 128 L225 128 Q230 128 230 110" fill="none" stroke="#30363d" stroke-width="1"/>
<path d="M210 146 L225 146 Q230 146 230 110" fill="none" stroke="#30363d" stroke-width="1"/>
<text x="240" y="115" fill="#8b949e" font-size="9" font-family="monospace" text-anchor="start">→ R16</text>
<text x="20" y="178" fill="#e6edf3" font-size="11" font-family="monospace" text-anchor="start">🇩🇪 德国</text>
<text x="20" y="196" fill="#e6edf3" font-size="11" font-family="monospace" text-anchor="start">🇯🇵 日本</text>
<text x="180" y="178" fill="#8b949e" font-size="8" font-family="monospace" text-anchor="end">6/28</text>
<text x="20" y="220" fill="#e6edf3" font-size="11" font-family="monospace" text-anchor="start">🇧🇪 比利时</text>
<text x="20" y="238" fill="#e6edf3" font-size="11" font-family="monospace" text-anchor="start">🇨🇻 佛得角</text>
<text x="180" y="220" fill="#8b949e" font-size="8" font-family="monospace" text-anchor="end">6/28</text>
<line x1="195" y1="178" x2="210" y2="178" stroke="#30363d" stroke-width="1"/>
<line x1="195" y1="196" x2="210" y2="196" stroke="#30363d" stroke-width="1"/>
<line x1="195" y1="220" x2="210" y2="220" stroke="#30363d" stroke-width="1"/>
<line x1="195" y1="238" x2="210" y2="238" stroke="#30363d" stroke-width="1"/>
<path d="M210 178 L225 178 Q230 178 230 202 L230 202" fill="none" stroke="#30363d" stroke-width="1"/>
<path d="M210 196 L225 196 Q230 196 230 202" fill="none" stroke="#30363d" stroke-width="1"/>
<path d="M210 220 L225 220 Q230 220 230 202" fill="none" stroke="#30363d" stroke-width="1"/>
<path d="M210 238 L225 238 Q230 238 230 202" fill="none" stroke="#30363d" stroke-width="1"/>
<text x="240" y="207" fill="#8b949e" font-size="9" font-family="monospace" text-anchor="start">→ R16</text>
<text x="20" y="270" fill="#e6edf3" font-size="11" font-family="monospace" text-anchor="start">🇫🇷 法国</text>
<text x="20" y="288" fill="#e6edf3" font-size="11" font-family="monospace" text-anchor="start">🇦🇹 奥地利</text>
<text x="180" y="270" fill="#8b949e" font-size="8" font-family="monospace" text-anchor="end">6/29</text>
<text x="20" y="312" fill="#e6edf3" font-size="11" font-family="monospace" text-anchor="start">🇨🇴 哥伦比亚</text>
<text x="20" y="330" fill="#e6edf3" font-size="11" font-family="monospace" text-anchor="start">🇭🇷 克罗地亚</text>
<text x="180" y="312" fill="#8b949e" font-size="8" font-family="monospace" text-anchor="end">6/29</text>
<line x1="195" y1="270" x2="210" y2="270" stroke="#30363d" stroke-width="1"/>
<line x1="195" y1="288" x2="210" y2="288" stroke="#30363d" stroke-width="1"/>
<line x1="195" y1="312" x2="210" y2="312" stroke="#30363d" stroke-width="1"/>
<line x1="195" y1="330" x2="210" y2="330" stroke="#30363d" stroke-width="1"/>
<path d="M210 270 L225 270 Q230 270 230 294 L230 294" fill="none" stroke="#30363d" stroke-width="1"/>
<path d="M210 288 L225 288 Q230 288 230 294" fill="none" stroke="#30363d" stroke-width="1"/>
<path d="M210 312 L225 312 Q230 312 230 294" fill="none" stroke="#30363d" stroke-width="1"/>
<path d="M210 330 L225 330 Q230 330 230 294" fill="none" stroke="#30363d" stroke-width="1"/>
<text x="240" y="299" fill="#8b949e" font-size="9" font-family="monospace" text-anchor="start">→ R16</text>
<text x="20" y="362" fill="#e6edf3" font-size="11" font-family="monospace" text-anchor="start">🇨🇭 瑞士</text>
<text x="20" y="380" fill="#e6edf3" font-size="11" font-family="monospace" text-anchor="start">🇿🇦 南非</text>
<text x="180" y="362" fill="#8b949e" font-size="8" font-family="monospace" text-anchor="end">6/29</text>
<text x="20" y="404" fill="#e6edf3" font-size="11" font-family="monospace" text-anchor="start">🇺🇸 美国</text>
<text x="20" y="422" fill="#e6edf3" font-size="11" font-family="monospace" text-anchor="start">🇲🇦 摩洛哥</text>
<text x="180" y="404" fill="#8b949e" font-size="8" font-family="monospace" text-anchor="end">6/29</text>
<line x1="195" y1="362" x2="210" y2="362" stroke="#30363d" stroke-width="1"/>
<line x1="195" y1="380" x2="210" y2="380" stroke="#30363d" stroke-width="1"/>
<line x1="195" y1="404" x2="210" y2="404" stroke="#30363d" stroke-width="1"/>
<line x1="195" y1="422" x2="210" y2="422" stroke="#30363d" stroke-width="1"/>
<path d="M210 362 L225 362 Q230 362 230 386 L230 386" fill="none" stroke="#30363d" stroke-width="1"/>
<path d="M210 380 L225 380 Q230 380 230 386" fill="none" stroke="#30363d" stroke-width="1"/>
<path d="M210 404 L225 404 Q230 404 230 386" fill="none" stroke="#30363d" stroke-width="1"/>
<path d="M210 422 L225 422 Q230 422 230 386" fill="none" stroke="#30363d" stroke-width="1"/>
<text x="240" y="391" fill="#8b949e" font-size="9" font-family="monospace" text-anchor="start">→ R16</text>
<text x="20" y="454" fill="#e6edf3" font-size="11" font-family="monospace" text-anchor="start">🇳🇱 荷兰</text>
<text x="20" y="472" fill="#e6edf3" font-size="11" font-family="monospace" text-anchor="start">🇨🇮 科特迪瓦</text>
<text x="180" y="454" fill="#8b949e" font-size="8" font-family="monospace" text-anchor="end">6/30</text>
<text x="20" y="496" fill="#e6edf3" font-size="11" font-family="monospace" text-anchor="start">🇪🇸 西班牙</text>
<text x="20" y="514" fill="#e6edf3" font-size="11" font-family="monospace" text-anchor="start">🇪🇬 埃及</text>
<text x="180" y="496" fill="#8b949e" font-size="8" font-family="monospace" text-anchor="end">6/30</text>
<line x1="195" y1="454" x2="210" y2="454" stroke="#30363d" stroke-width="1"/>
<line x1="195" y1="472" x2="210" y2="472" stroke="#30363d" stroke-width="1"/>
<line x1="195" y1="496" x2="210" y2="496" stroke="#30363d" stroke-width="1"/>
<line x1="195" y1="514" x2="210" y2="514" stroke="#30363d" stroke-width="1"/>
<path d="M210 454 L225 454 Q230 454 230 478 L230 478" fill="none" stroke="#30363d" stroke-width="1"/>
<path d="M210 472 L225 472 Q230 472 230 478" fill="none" stroke="#30363d" stroke-width="1"/>
<path d="M210 496 L225 496 Q230 496 230 478" fill="none" stroke="#30363d" stroke-width="1"/>
<path d="M210 514 L225 514 Q230 514 230 478" fill="none" stroke="#30363d" stroke-width="1"/>
<text x="240" y="483" fill="#8b949e" font-size="9" font-family="monospace" text-anchor="start">→ R16</text>
<text x="20" y="546" fill="#e6edf3" font-size="11" font-family="monospace" text-anchor="start">🇦🇷 阿根廷</text>
<text x="20" y="564" fill="#e6edf3" font-size="11" font-family="monospace" text-anchor="start">🇳🇴 挪威</text>
<text x="180" y="546" fill="#8b949e" font-size="8" font-family="monospace" text-anchor="end">6/30</text>
<text x="20" y="588" fill="#e6edf3" font-size="11" font-family="monospace" text-anchor="start">🏴󠁧󠁢󠁥󠁮󠁧󠁿 英格兰</text>
<text x="20" y="606" fill="#e6edf3" font-size="11" font-family="monospace" text-anchor="start">🇵🇹 葡萄牙</text>
<text x="180" y="588" fill="#8b949e" font-size="8" font-family="monospace" text-anchor="end">6/30</text>
<line x1="195" y1="546" x2="210" y2="546" stroke="#30363d" stroke-width="1"/>
<line x1="195" y1="564" x2="210" y2="564" stroke="#30363d" stroke-width="1"/>
<line x1="195" y1="588" x2="210" y2="588" stroke="#30363d" stroke-width="1"/>
<line x1="195" y1="606" x2="210" y2="606" stroke="#30363d" stroke-width="1"/>
<path d="M210 546 L225 546 Q230 546 230 570 L230 570" fill="none" stroke="#30363d" stroke-width="1"/>
<path d="M210 564 L225 564 Q230 564 230 570" fill="none" stroke="#30363d" stroke-width="1"/>
<path d="M210 588 L225 588 Q230 588 230 570" fill="none" stroke="#30363d" stroke-width="1"/>
<path d="M210 606 L225 606 Q230 606 230 570" fill="none" stroke="#30363d" stroke-width="1"/>
<text x="240" y="575" fill="#8b949e" font-size="9" font-family="monospace" text-anchor="start">→ R16</text>
<text x="380" y="670" fill="#8b949e" font-size="8" font-family="monospace" text-anchor="end">更新 2026-07-17 22:45 CST · 自动生成</text>
</svg>