<svg xmlns="http://www.w3.org/2000/svg" width="676" height="696" viewBox="0 0 676 696" role="img"><rect x="0.5" y="0.5" width="675" height="695" rx="10" ry="10" fill="#161b22" stroke="#30363d" stroke-width="1"/><path d="M0.5 34 H675.5" stroke="#30363d" stroke-width="1"/><rect x="0.5" y="0.5" width="675" height="33.5" rx="10" ry="10" fill="#1f2630"/><rect x="0.5" y="24" width="675" height="10" rx="0" ry="0" fill="#1f2630"/><text x="14" y="22" font-family="-apple-system, BlinkMacSystemFont, 'Segoe UI', Helvetica, Arial, sans-serif" font-size="12" font-weight="700" fill="#8b949e" text-anchor="start">WORLD CUP 26 · BRACKET</text><text x="66" y="48" font-family="-apple-system, BlinkMacSystemFont, 'Segoe UI', Helvetica, Arial, sans-serif" font-size="10" font-weight="700" fill="#8b949e" text-anchor="middle">R32</text><text x="202" y="48" font-family="-apple-system, BlinkMacSystemFont, 'Segoe UI', Helvetica, Arial, sans-serif" font-size="10" font-weight="700" fill="#8b949e" text-anchor="middle">R16</text><text x="338" y="48" font-family="-apple-system, BlinkMacSystemFont, 'Segoe UI', Helvetica, Arial, sans-serif" font-size="10" font-weight="700" fill="#8b949e" text-anchor="middle">QF</text><text x="474" y="48" font-family="-apple-system, BlinkMacSystemFont, 'Segoe UI', Helvetica, Arial, sans-serif" font-size="10" font-weight="700" fill="#8b949e" text-anchor="middle">SF</text><text x="610" y="48" font-family="-apple-system, BlinkMacSystemFont, 'Segoe UI', Helvetica, Arial, sans-serif" font-size="10" font-weight="700" fill="#8b949e" text-anchor="middle">FINAL</text><path d="M118 76 H134 V94 H150" fill="none" stroke="#30363d" stroke-width="1.25"/><path d="M118 112 H134 V94 H150" fill="none" stroke="#30363d" stroke-width="1.25"/><path d="M118 148 H134 V166 H150" fill="none" stroke="#30363d" stroke-width="1.25"/><path d="M118 184 H134 V166 H150" fill="none" stroke="#30363d" stroke-width="1.25"/><path d="M118 364 H134 V382 H150" fill="none" stroke="#30363d" stroke-width="1.25"/><path d="M118 400 H134 V382 H150" fill="none" stroke="#30363d" stroke-width="1.25"/><path d="M118 436 H134 V454 H150" fill="none" stroke="#30363d" stroke-width="1.25"/><path d="M118 472 H134 V454 H150" fill="none" stroke="#30363d" stroke-width="1.25"/><path d="M118 220 H134 V238 H150" fill="none" stroke="#30363d" stroke-width="1.25"/><path d="M118 256 H134 V238 H150" fill="none" stroke="#30363d" stroke-width="1.25"/><path d="M118 292 H134 V310 H150" fill="none" stroke="#30363d" stroke-width="1.25"/><path d="M118 328 H134 V310 H150" fill="none" stroke="#30363d" stroke-width="1.25"/><path d="M118 508 H134 V526 H150" fill="none" stroke="#30363d" stroke-width="1.25"/><path d="M118 544 H134 V526 H150" fill="none" stroke="#30363d" stroke-width="1.25"/><path d="M118 580 H134 V598 H150" fill="none" stroke="#30363d" stroke-width="1.25"/><path d="M118 616 H134 V598 H150" fill="none" stroke="#30363d" stroke-width="1.25"/><path d="M254 94 H270 V130 H286" fill="none" stroke="#30363d" stroke-width="1.25"/><path d="M254 166 H270 V130 H286" fill="none" stroke="#30363d" stroke-width="1.25"/><path d="M254 238 H270 V274 H286" fill="none" stroke="#30363d" stroke-width="1.25"/><path d="M254 310 H270 V274 H286" fill="none" stroke="#30363d" stroke-width="1.25"/><path d="M254 382 H270 V418 H286" fill="none" stroke="#30363d" stroke-width="1.25"/><path d="M254 454 H270 V418 H286" fill="none" stroke="#30363d" stroke-width="1.25"/><path d="M254 526 H270 V562 H286" fill="none" stroke="#30363d" stroke-width="1.25"/><path d="M254 598 H270 V562 H286" fill="none" stroke="#30363d" stroke-width="1.25"/><path d="M390 130 H406 V202 H422" fill="none" stroke="#30363d" stroke-width="1.25"/><path d="M390 274 H406 V202 H422" fill="none" stroke="#30363d" stroke-width="1.25"/><path d="M390 418 H406 V490 H422" fill="none" stroke="#30363d" stroke-width="1.25"/><path d="M390 562 H406 V490 H422" fill="none" stroke="#30363d" stroke-width="1.25"/><path d="M526 202 H542 V346 H558" fill="none" stroke="#30363d" stroke-width="1.25"/><path d="M526 490 H542 V346 H558" fill="none" stroke="#30363d" stroke-width="1.25"/><rect x="14" y="132" width="104" height="32" rx="5" ry="5" fill="#161b22" stroke="#30363d" stroke-width="1"/><path d="M14 148 H118" stroke="#30363d" stroke-width="0.6" opacity="0.6"/><text x="21" y="144" font-family="-apple-system, BlinkMacSystemFont, 'Segoe UI', Helvetica, Arial, sans-serif" font-size="9.5" font-weight="400" fill="#8b949e" text-anchor="start">2A</text><text x="21" y="160" font-family="-apple-system, BlinkMacSystemFont, 'Segoe UI', Helvetica, Arial, sans-serif" font-size="9.5" font-weight="400" fill="#8b949e" text-anchor="start">2B</text><rect x="14" y="60" width="104" height="32" rx="5" ry="5" fill="#161b22" stroke="#30363d" stroke-width="1"/><path d="M14 76 H118" stroke="#30363d" stroke-width="0.6" opacity="0.6"/><text x="21" y="72" font-family="-apple-system, BlinkMacSystemFont, 'Segoe UI', Helvetica, Arial, sans-serif" font-size="9.5" font-weight="400" fill="#8b949e" text-anchor="start">1E</text><text x="21" y="88" font-family="-apple-system, BlinkMacSystemFont, 'Segoe UI', Helvetica, Arial, sans-serif" font-size="9.5" font-weight="400" fill="#8b949e" text-anchor="start">3A/B/C/D/F</text><rect x="14" y="168" width="104" height="32" rx="5" ry="5" fill="#161b22" stroke="#30363d" stroke-width="1"/><path d="M14 184 H118" stroke="#30363d" stroke-width="0.6" opacity="0.6"/><text x="21" y="180" font-family="-apple-system, BlinkMacSystemFont, 'Segoe UI', Helvetica, Arial, sans-serif" font-size="9.5" font-weight="400" fill="#8b949e" text-anchor="start">1F</text><text x="21" y="196" font-family="-apple-system, BlinkMacSystemFont, 'Segoe UI', Helvetica, Arial, sans-serif" font-size="9.5" font-weight="400" fill="#8b949e" text-anchor="start">2C</text><rect x="14" y="348" width="104" height="32" rx="5" ry="5" fill="#161b22" stroke="#30363d" stroke-width="1"/><path d="M14 364 H118" stroke="#30363d" stroke-width="0.6" opacity="0.6"/><text x="21" y="360" font-family="-apple-system, BlinkMacSystemFont, 'Segoe UI', Helvetica, Arial, sans-serif" font-size="9.5" font-weight="400" fill="#8b949e" text-anchor="start">1C</text><text x="21" y="376" font-family="-apple-system, BlinkMacSystemFont, 'Segoe UI', Helvetica, Arial, sans-serif" font-size="9.5" font-weight="400" fill="#8b949e" text-anchor="start">2F</text><rect x="14" y="96" width="104" height="32" rx="5" ry="5" fill="#161b22" stroke="#30363d" stroke-width="1"/><path d="M14 112 H118" stroke="#30363d" stroke-width="0.6" opacity="0.6"/><text x="21" y="108" font-family="-apple-system, BlinkMacSystemFont, 'Segoe UI', Helvetica, Arial, sans-serif" font-size="9.5" font-weight="400" fill="#8b949e" text-anchor="start">1I</text><text x="21" y="124" font-family="-apple-system, BlinkMacSystemFont, 'Segoe UI', Helvetica, Arial, sans-serif" font-size="9.5" font-weight="400" fill="#8b949e" text-anchor="start">3C/D/F/G/H</text><rect x="14" y="384" width="104" height="32" rx="5" ry="5" fill="#161b22" stroke="#30363d" stroke-width="1"/><path d="M14 400 H118" stroke="#30363d" stroke-width="0.6" opacity="0.6"/><text x="21" y="396" font-family="-apple-system, BlinkMacSystemFont, 'Segoe UI', Helvetica, Arial, sans-serif" font-size="9.5" font-weight="400" fill="#8b949e" text-anchor="start">2E</text><text x="21" y="412" font-family="-apple-system, BlinkMacSystemFont, 'Segoe UI', Helvetica, Arial, sans-serif" font-size="9.5" font-weight="400" fill="#8b949e" text-anchor="start">2I</text><rect x="14" y="420" width="104" height="32" rx="5" ry="5" fill="#161b22" stroke="#30363d" stroke-width="1"/><path d="M14 436 H118" stroke="#30363d" stroke-width="0.6" opacity="0.6"/><text x="21" y="432" font-family="-apple-system, BlinkMacSystemFont, 'Segoe UI', Helvetica, Arial, sans-serif" font-size="9.5" font-weight="400" fill="#8b949e" text-anchor="start">1A</text><text x="21" y="448" font-family="-apple-system, BlinkMacSystemFont, 'Segoe UI', Helvetica, Arial, sans-serif" font-size="9.5" font-weight="400" fill="#8b949e" text-anchor="start">3C/E/F/H/I</text><rect x="14" y="456" width="104" height="32" rx="5" ry="5" fill="#161b22" stroke="#30363d" stroke-width="1"/><path d="M14 472 H118" stroke="#30363d" stroke-width="0.6" opacity="0.6"/><text x="21" y="468" font-family="-apple-system, BlinkMacSystemFont, 'Segoe UI', Helvetica, Arial, sans-serif" font-size="9.5" font-weight="400" fill="#8b949e" text-anchor="start">1L</text><text x="21" y="484" font-family="-apple-system, BlinkMacSystemFont, 'Segoe UI', Helvetica, Arial, sans-serif" font-size="9.5" font-weight="400" fill="#8b949e" text-anchor="start">3E/H/I/J/K</text><rect x="14" y="276" width="104" height="32" rx="5" ry="5" fill="#161b22" stroke="#30363d" stroke-width="1"/><path d="M14 292 H118" stroke="#30363d" stroke-width="0.6" opacity="0.6"/><text x="21" y="288" font-family="-apple-system, BlinkMacSystemFont, 'Segoe UI', Helvetica, Arial, sans-serif" font-size="9.5" font-weight="400" fill="#8b949e" text-anchor="start">1D</text><text x="21" y="304" font-family="-apple-system, BlinkMacSystemFont, 'Segoe UI', Helvetica, Arial, sans-serif" font-size="9.5" font-weight="400" fill="#8b949e" text-anchor="start">3B/E/F/I/J</text><rect x="14" y="312" width="104" height="32" rx="5" ry="5" fill="#161b22" stroke="#30363d" stroke-width="1"/><path d="M14 328 H118" stroke="#30363d" stroke-width="0.6" opacity="0.6"/><text x="21" y="324" font-family="-apple-system, BlinkMacSystemFont, 'Segoe UI', Helvetica, Arial, sans-serif" font-size="9.5" font-weight="400" fill="#8b949e" text-anchor="start">1G</text><text x="21" y="340" font-family="-apple-system, BlinkMacSystemFont, 'Segoe UI', Helvetica, Arial, sans-serif" font-size="9.5" font-weight="400" fill="#8b949e" text-anchor="start">3A/E/H/I/J</text><rect x="14" y="204" width="104" height="32" rx="5" ry="5" fill="#161b22" stroke="#30363d" stroke-width="1"/><path d="M14 220 H118" stroke="#30363d" stroke-width="0.6" opacity="0.6"/><text x="21" y="216" font-family="-apple-system, BlinkMacSystemFont, 'Segoe UI', Helvetica, Arial, sans-serif" font-size="9.5" font-weight="400" fill="#8b949e" text-anchor="start">2K</text><text x="21" y="232" font-family="-apple-system, BlinkMacSystemFont, 'Segoe UI', Helvetica, Arial, sans-serif" font-size="9.5" font-weight="400" fill="#8b949e" text-anchor="start">2L</text><rect x="14" y="240" width="104" height="32" rx="5" ry="5" fill="#161b22" stroke="#30363d" stroke-width="1"/><path d="M14 256 H118" stroke="#30363d" stroke-width="0.6" opacity="0.6"/><text x="21" y="252" font-family="-apple-system, BlinkMacSystemFont, 'Segoe UI', Helvetica, Arial, sans-serif" font-size="9.5" font-weight="400" fill="#8b949e" text-anchor="start">1H</text><text x="21" y="268" font-family="-apple-system, BlinkMacSystemFont, 'Segoe UI', Helvetica, Arial, sans-serif" font-size="9.5" font-weight="400" fill="#8b949e" text-anchor="start">2J</text><rect x="14" y="564" width="104" height="32" rx="5" ry="5" fill="#161b22" stroke="#30363d" stroke-width="1"/><path d="M14 580 H118" stroke="#30363d" stroke-width="0.6" opacity="0.6"/><text x="21" y="576" font-family="-apple-system, BlinkMacSystemFont, 'Segoe UI', Helvetica, Arial, sans-serif" font-size="9.5" font-weight="400" fill="#8b949e" text-anchor="start">1B</text><text x="21" y="592" font-family="-apple-system, BlinkMacSystemFont, 'Segoe UI', Helvetica, Arial, sans-serif" font-size="9.5" font-weight="400" fill="#8b949e" text-anchor="start">3E/F/G/I/J</text><rect x="14" y="492" width="104" height="32" rx="5" ry="5" fill="#161b22" stroke="#30363d" stroke-width="1"/><path d="M14 508 H118" stroke="#30363d" stroke-width="0.6" opacity="0.6"/><text x="21" y="504" font-family="-apple-system, BlinkMacSystemFont, 'Segoe UI', Helvetica, Arial, sans-serif" font-size="9.5" font-weight="400" fill="#8b949e" text-anchor="start">1J</text><text x="21" y="520" font-family="-apple-system, BlinkMacSystemFont, 'Segoe UI', Helvetica, Arial, sans-serif" font-size="9.5" font-weight="400" fill="#8b949e" text-anchor="start">2H</text><rect x="14" y="600" width="104" height="32" rx="5" ry="5" fill="#161b22" stroke="#30363d" stroke-width="1"/><path d="M14 616 H118" stroke="#30363d" stroke-width="0.6" opacity="0.6"/><text x="21" y="612" font-family="-apple-system, BlinkMacSystemFont, 'Segoe UI', Helvetica, Arial, sans-serif" font-size="9.5" font-weight="400" fill="#8b949e" text-anchor="start">1K</text><text x="21" y="628" font-family="-apple-system, BlinkMacSystemFont, 'Segoe UI', Helvetica, Arial, sans-serif" font-size="9.5" font-weight="400" fill="#8b949e" text-anchor="start">3D/E/I/J/L</text><rect x="14" y="528" width="104" height="32" rx="5" ry="5" fill="#161b22" stroke="#30363d" stroke-width="1"/><path d="M14 544 H118" stroke="#30363d" stroke-width="0.6" opacity="0.6"/><text x="21" y="540" font-family="-apple-system, BlinkMacSystemFont, 'Segoe UI', Helvetica, Arial, sans-serif" font-size="9.5" font-weight="400" fill="#8b949e" text-anchor="start">2D</text><text x="21" y="556" font-family="-apple-system, BlinkMacSystemFont, 'Segoe UI', Helvetica, Arial, sans-serif" font-size="9.5" font-weight="400" fill="#8b949e" text-anchor="start">2G</text><rect x="150" y="78" width="104" height="32" rx="5" ry="5" fill="#161b22" stroke="#30363d" stroke-width="1"/><path d="M150 94 H254" stroke="#30363d" stroke-width="0.6" opacity="0.6"/><text x="157" y="90" font-family="-apple-system, BlinkMacSystemFont, 'Segoe UI', Helvetica, Arial, sans-serif" font-size="9.5" font-weight="400" fill="#8b949e" text-anchor="start">W74</text><text x="157" y="106" font-family="-apple-system, BlinkMacSystemFont, 'Segoe UI', Helvetica, Arial, sans-serif" font-size="9.5" font-weight="400" fill="#8b949e" text-anchor="start">W77</text><rect x="150" y="150" width="104" height="32" rx="5" ry="5" fill="#161b22" stroke="#30363d" stroke-width="1"/><path d="M150 166 H254" stroke="#30363d" stroke-width="0.6" opacity="0.6"/><text x="157" y="162" font-family="-apple-system, BlinkMacSystemFont, 'Segoe UI', Helvetica, Arial, sans-serif" font-size="9.5" font-weight="400" fill="#8b949e" text-anchor="start">W73</text><text x="157" y="178" font-family="-apple-system, BlinkMacSystemFont, 'Segoe UI', Helvetica, Arial, sans-serif" font-size="9.5" font-weight="400" fill="#8b949e" text-anchor="start">W75</text><rect x="150" y="366" width="104" height="32" rx="5" ry="5" fill="#161b22" stroke="#30363d" stroke-width="1"/><path d="M150 382 H254" stroke="#30363d" stroke-width="0.6" opacity="0.6"/><text x="157" y="378" font-family="-apple-system, BlinkMacSystemFont, 'Segoe UI', Helvetica, Arial, sans-serif" font-size="9.5" font-weight="400" fill="#8b949e" text-anchor="start">W76</text><text x="157" y="394" font-family="-apple-system, BlinkMacSystemFont, 'Segoe UI', Helvetica, Arial, sans-serif" font-size="9.5" font-weight="400" fill="#8b949e" text-anchor="start">W78</text><rect x="150" y="438" width="104" height="32" rx="5" ry="5" fill="#161b22" stroke="#30363d" stroke-width="1"/><path d="M150 454 H254" stroke="#30363d" stroke-width="0.6" opacity="0.6"/><text x="157" y="450" font-family="-apple-system, BlinkMacSystemFont, 'Segoe UI', Helvetica, Arial, sans-serif" font-size="9.5" font-weight="400" fill="#8b949e" text-anchor="start">W79</text><text x="157" y="466" font-family="-apple-system, BlinkMacSystemFont, 'Segoe UI', Helvetica, Arial, sans-serif" font-size="9.5" font-weight="400" fill="#8b949e" text-anchor="start">W80</text><rect x="150" y="222" width="104" height="32" rx="5" ry="5" fill="#161b22" stroke="#30363d" stroke-width="1"/><path d="M150 238 H254" stroke="#30363d" stroke-width="0.6" opacity="0.6"/><text x="157" y="234" font-family="-apple-system, BlinkMacSystemFont, 'Segoe UI', Helvetica, Arial, sans-serif" font-size="9.5" font-weight="400" fill="#8b949e" text-anchor="start">W83</text><text x="157" y="250" font-family="-apple-system, BlinkMacSystemFont, 'Segoe UI', Helvetica, Arial, sans-serif" font-size="9.5" font-weight="400" fill="#8b949e" text-anchor="start">W84</text><rect x="150" y="294" width="104" height="32" rx="5" ry="5" fill="#161b22" stroke="#30363d" stroke-width="1"/><path d="M150 310 H254" stroke="#30363d" stroke-width="0.6" opacity="0.6"/><text x="157" y="306" font-family="-apple-system, BlinkMacSystemFont, 'Segoe UI', Helvetica, Arial, sans-serif" font-size="9.5" font-weight="400" fill="#8b949e" text-anchor="start">W81</text><text x="157" y="322" font-family="-apple-system, BlinkMacSystemFont, 'Segoe UI', Helvetica, Arial, sans-serif" font-size="9.5" font-weight="400" fill="#8b949e" text-anchor="start">W82</text><rect x="150" y="510" width="104" height="32" rx="5" ry="5" fill="#161b22" stroke="#30363d" stroke-width="1"/><path d="M150 526 H254" stroke="#30363d" stroke-width="0.6" opacity="0.6"/><text x="157" y="522" font-family="-apple-system, BlinkMacSystemFont, 'Segoe UI', Helvetica, Arial, sans-serif" font-size="9.5" font-weight="400" fill="#8b949e" text-anchor="start">W86</text><text x="157" y="538" font-family="-apple-system, BlinkMacSystemFont, 'Segoe UI', Helvetica, Arial, sans-serif" font-size="9.5" font-weight="400" fill="#8b949e" text-anchor="start">W88</text><rect x="150" y="582" width="104" height="32" rx="5" ry="5" fill="#161b22" stroke="#30363d" stroke-width="1"/><path d="M150 598 H254" stroke="#30363d" stroke-width="0.6" opacity="0.6"/><text x="157" y="594" font-family="-apple-system, BlinkMacSystemFont, 'Segoe UI', Helvetica, Arial, sans-serif" font-size="9.5" font-weight="400" fill="#8b949e" text-anchor="start">W85</text><text x="157" y="610" font-family="-apple-system, BlinkMacSystemFont, 'Segoe UI', Helvetica, Arial, sans-serif" font-size="9.5" font-weight="400" fill="#8b949e" text-anchor="start">W87</text><rect x="286" y="114" width="104" height="32" rx="5" ry="5" fill="#161b22" stroke="#30363d" stroke-width="1"/><path d="M286 130 H390" stroke="#30363d" stroke-width="0.6" opacity="0.6"/><text x="293" y="126" font-family="-apple-system, BlinkMacSystemFont, 'Segoe UI', Helvetica, Arial, sans-serif" font-size="9.5" font-weight="400" fill="#8b949e" text-anchor="start">W89</text><text x="293" y="142" font-family="-apple-system, BlinkMacSystemFont, 'Segoe UI', Helvetica, Arial, sans-serif" font-size="9.5" font-weight="400" fill="#8b949e" text-anchor="start">W90</text><rect x="286" y="258" width="104" height="32" rx="5" ry="5" fill="#161b22" stroke="#30363d" stroke-width="1"/><path d="M286 274 H390" stroke="#30363d" stroke-width="0.6" opacity="0.6"/><text x="293" y="270" font-family="-apple-system, BlinkMacSystemFont, 'Segoe UI', Helvetica, Arial, sans-serif" font-size="9.5" font-weight="400" fill="#8b949e" text-anchor="start">W93</text><text x="293" y="286" font-family="-apple-system, BlinkMacSystemFont, 'Segoe UI', Helvetica, Arial, sans-serif" font-size="9.5" font-weight="400" fill="#8b949e" text-anchor="start">W94</text><rect x="286" y="402" width="104" height="32" rx="5" ry="5" fill="#161b22" stroke="#30363d" stroke-width="1"/><path d="M286 418 H390" stroke="#30363d" stroke-width="0.6" opacity="0.6"/><text x="293" y="414" font-family="-apple-system, BlinkMacSystemFont, 'Segoe UI', Helvetica, Arial, sans-serif" font-size="9.5" font-weight="400" fill="#8b949e" text-anchor="start">W91</text><text x="293" y="430" font-family="-apple-system, BlinkMacSystemFont, 'Segoe UI', Helvetica, Arial, sans-serif" font-size="9.5" font-weight="400" fill="#8b949e" text-anchor="start">W92</text><rect x="286" y="546" width="104" height="32" rx="5" ry="5" fill="#161b22" stroke="#30363d" stroke-width="1"/><path d="M286 562 H390" stroke="#30363d" stroke-width="0.6" opacity="0.6"/><text x="293" y="558" font-family="-apple-system, BlinkMacSystemFont, 'Segoe UI', Helvetica, Arial, sans-serif" font-size="9.5" font-weight="400" fill="#8b949e" text-anchor="start">W95</text><text x="293" y="574" font-family="-apple-system, BlinkMacSystemFont, 'Segoe UI', Helvetica, Arial, sans-serif" font-size="9.5" font-weight="400" fill="#8b949e" text-anchor="start">W96</text><rect x="422" y="186" width="104" height="32" rx="5" ry="5" fill="#161b22" stroke="#30363d" stroke-width="1"/><path d="M422 202 H526" stroke="#30363d" stroke-width="0.6" opacity="0.6"/><text x="429" y="198" font-family="-apple-system, BlinkMacSystemFont, 'Segoe UI', Helvetica, Arial, sans-serif" font-size="9.5" font-weight="400" fill="#8b949e" text-anchor="start">W97</text><text x="429" y="214" font-family="-apple-system, BlinkMacSystemFont, 'Segoe UI', Helvetica, Arial, sans-serif" font-size="9.5" font-weight="400" fill="#8b949e" text-anchor="start">W98</text><rect x="422" y="474" width="104" height="32" rx="5" ry="5" fill="#161b22" stroke="#30363d" stroke-width="1"/><path d="M422 490 H526" stroke="#30363d" stroke-width="0.6" opacity="0.6"/><text x="429" y="486" font-family="-apple-system, BlinkMacSystemFont, 'Segoe UI', Helvetica, Arial, sans-serif" font-size="9.5" font-weight="400" fill="#8b949e" text-anchor="start">W99</text><text x="429" y="502" font-family="-apple-system, BlinkMacSystemFont, 'Segoe UI', Helvetica, Arial, sans-serif" font-size="9.5" font-weight="400" fill="#8b949e" text-anchor="start">W100</text><rect x="558" y="330" width="104" height="32" rx="5" ry="5" fill="#161b22" stroke="#30363d" stroke-width="1"/><path d="M558 346 H662" stroke="#30363d" stroke-width="0.6" opacity="0.6"/><text x="565" y="342" font-family="-apple-system, BlinkMacSystemFont, 'Segoe UI', Helvetica, Arial, sans-serif" font-size="9.5" font-weight="400" fill="#8b949e" text-anchor="start">W101</text><text x="565" y="358" font-family="-apple-system, BlinkMacSystemFont, 'Segoe UI', Helvetica, Arial, sans-serif" font-size="9.5" font-weight="400" fill="#8b949e" text-anchor="start">W102</text><text x="610" y="644" font-family="-apple-system, BlinkMacSystemFont, 'Segoe UI', Helvetica, Arial, sans-serif" font-size="9" font-weight="700" fill="#8b949e" text-anchor="middle">3RD PLACE</text><rect x="558" y="650" width="104" height="32" rx="5" ry="5" fill="#161b22" stroke="#30363d" stroke-width="1"/><path d="M558 666 H662" stroke="#30363d" stroke-width="0.6" opacity="0.6"/><text x="565" y="662" font-family="-apple-system, BlinkMacSystemFont, 'Segoe UI', Helvetica, Arial, sans-serif" font-size="9.5" font-weight="400" fill="#8b949e" text-anchor="start">L101</text><text x="565" y="678" font-family="-apple-system, BlinkMacSystemFont, 'Segoe UI', Helvetica, Arial, sans-serif" font-size="9.5" font-weight="400" fill="#8b949e" text-anchor="start">L102</text></svg>