<svg xmlns="http://www.w3.org/2000/svg" viewBox="0 0 660 560" width="990" height="840">
<rect x="0" y="0" width="660" height="560" fill="#0d1117"/>
<rect x="12" y="10" width="636" height="540" fill="#161b22" rx="8"/>
<rect x="12" y="10" width="636" height="1" fill="#30363d"/>
<text x="30" y="38" fill="#d2991d" font-size="20" font-family="monospace" text-anchor="start" font-weight="bold">🏆 2026世界杯夺冠概率 TOP 10</text>
<text x="30" y="60" fill="#8b949e" font-size="12" font-family="monospace" text-anchor="start">Championship Odds · 50,000 Monte Carlo</text>
<text x="30" y="96" fill="#8b949e" font-size="12" font-family="monospace" text-anchor="end">1.</text>
<text x="40" y="96" fill="#e6edf3" font-size="12" font-family="monospace" text-anchor="start">🇪🇸 西班牙</text>
<rect x="170" y="80" width="410" height="22" fill="#58a6ff" rx="3"/>
<text x="586" y="96" fill="#e6edf3" font-size="13" font-family="monospace" text-anchor="start" font-weight="bold">22.8%</text>
<text x="30" y="128" fill="#8b949e" font-size="12" font-family="monospace" text-anchor="end">2.</text>
<text x="40" y="128" fill="#e6edf3" font-size="12" font-family="monospace" text-anchor="start">🇫🇷 法国</text>
<rect x="170" y="112" width="409" height="22" fill="#3fb950" rx="3"/>
<text x="585" y="128" fill="#e6edf3" font-size="13" font-family="monospace" text-anchor="start" font-weight="bold">22.8%</text>
<text x="30" y="160" fill="#8b949e" font-size="12" font-family="monospace" text-anchor="end">3.</text>
<text x="40" y="160" fill="#e6edf3" font-size="12" font-family="monospace" text-anchor="start">🏴󠁧󠁢󠁥󠁮󠁧󠁿 英格兰</text>
<rect x="170" y="144" width="374" height="22" fill="#d2991d" rx="3"/>
<text x="550" y="160" fill="#e6edf3" font-size="13" font-family="monospace" text-anchor="start" font-weight="bold">20.9%</text>
<text x="30" y="192" fill="#8b949e" font-size="12" font-family="monospace" text-anchor="end">4.</text>
<text x="40" y="192" fill="#e6edf3" font-size="12" font-family="monospace" text-anchor="start">🇦🇷 阿根廷</text>
<rect x="170" y="176" width="279" height="22" fill="#f78166" rx="3"/>
<text x="455" y="192" fill="#e6edf3" font-size="13" font-family="monospace" text-anchor="start" font-weight="bold">15.6%</text>
<text x="30" y="224" fill="#8b949e" font-size="12" font-family="monospace" text-anchor="end">5.</text>
<text x="40" y="224" fill="#e6edf3" font-size="12" font-family="monospace" text-anchor="start">🇳🇴 挪威</text>
<rect x="170" y="208" width="90" height="22" fill="#a371f7" rx="3"/>
<text x="266" y="224" fill="#e6edf3" font-size="13" font-family="monospace" text-anchor="start" font-weight="bold">5.0%</text>
<text x="30" y="256" fill="#8b949e" font-size="12" font-family="monospace" text-anchor="end">6.</text>
<text x="40" y="256" fill="#e6edf3" font-size="12" font-family="monospace" text-anchor="start">🇧🇪 比利时</text>
<rect x="170" y="240" width="78" height="22" fill="#79c0ff" rx="3"/>
<text x="254" y="256" fill="#e6edf3" font-size="13" font-family="monospace" text-anchor="start" font-weight="bold">4.4%</text>
<text x="30" y="288" fill="#8b949e" font-size="12" font-family="monospace" text-anchor="end">7.</text>
<text x="40" y="288" fill="#e6edf3" font-size="12" font-family="monospace" text-anchor="start">🇲🇦 摩洛哥</text>
<rect x="170" y="272" width="76" height="22" fill="#56d364" rx="3"/>
<text x="252" y="288" fill="#e6edf3" font-size="13" font-family="monospace" text-anchor="start" font-weight="bold">4.2%</text>
<text x="30" y="320" fill="#8b949e" font-size="12" font-family="monospace" text-anchor="end">8.</text>
<text x="40" y="320" fill="#e6edf3" font-size="12" font-family="monospace" text-anchor="start">🇨🇴 哥伦比亚</text>
<rect x="170" y="304" width="57" height="22" fill="#e3b341" rx="3"/>
<text x="233" y="320" fill="#e6edf3" font-size="13" font-family="monospace" text-anchor="start" font-weight="bold">3.2%</text>
<text x="30" y="352" fill="#8b949e" font-size="12" font-family="monospace" text-anchor="end">9.</text>
<text x="40" y="352" fill="#e6edf3" font-size="12" font-family="monospace" text-anchor="start">🇨🇭 瑞士</text>
<rect x="170" y="336" width="17" height="22" fill="#f0883e" rx="3"/>
<text x="193" y="352" fill="#e6edf3" font-size="13" font-family="monospace" text-anchor="start" font-weight="bold">1.0%</text>
<text x="30" y="384" fill="#8b949e" font-size="12" font-family="monospace" text-anchor="end">10.</text>
<text x="40" y="384" fill="#e6edf3" font-size="12" font-family="monospace" text-anchor="start">🇪🇬 埃及</text>
<rect x="170" y="368" width="1" height="22" fill="#bc8cff" rx="3"/>
<text x="177" y="384" fill="#e6edf3" font-size="13" font-family="monospace" text-anchor="start" font-weight="bold">0.1%</text>
<text x="630" y="536" fill="#8b949e" font-size="10" font-family="monospace" text-anchor="end">更新 2026-07-07 16:26 CST</text>
<text x="30" y="536" fill="#8b949e" font-size="9" font-family="monospace" text-anchor="start">数据来源 cup26matches.com · CC BY 4.0</text>
</svg>