<svg xmlns="http://www.w3.org/2000/svg" viewBox="0 0 660 560" width="990" height="840">
<rect x="0" y="0" width="660" height="560" fill="#0d1117"/>
<rect x="12" y="10" width="636" height="540" fill="#161b22" rx="8"/>
<rect x="12" y="10" width="636" height="1" fill="#30363d"/>
<text x="30" y="38" fill="#d2991d" font-size="20" font-family="monospace" text-anchor="start" font-weight="bold">рҹҸҶ 2026дё–з•ҢжқҜеӨәеҶ жҰӮзҺҮ TOP 10</text>
<text x="30" y="60" fill="#8b949e" font-size="12" font-family="monospace" text-anchor="start">Championship Odds В· 50,000 Monte Carlo</text>
<text x="30" y="96" fill="#8b949e" font-size="12" font-family="monospace" text-anchor="end">1.</text>
<text x="40" y="96" fill="#e6edf3" font-size="12" font-family="monospace" text-anchor="start">рҹҮҰрҹҮ· йҳҝж №е»·</text>
<rect x="170" y="80" width="410" height="22" fill="#58a6ff" rx="3"/>
<text x="586" y="96" fill="#e6edf3" font-size="13" font-family="monospace" text-anchor="start" font-weight="bold">15.6%</text>
<text x="30" y="128" fill="#8b949e" font-size="12" font-family="monospace" text-anchor="end">2.</text>
<text x="40" y="128" fill="#e6edf3" font-size="12" font-family="monospace" text-anchor="start">рҹҮ«рҹҮ· жі•еӣҪ</text>
<rect x="170" y="112" width="405" height="22" fill="#3fb950" rx="3"/>
<text x="581" y="128" fill="#e6edf3" font-size="13" font-family="monospace" text-anchor="start" font-weight="bold">15.5%</text>
<text x="30" y="160" fill="#8b949e" font-size="12" font-family="monospace" text-anchor="end">3.</text>
<text x="40" y="160" fill="#e6edf3" font-size="12" font-family="monospace" text-anchor="start">рҹҮӘрҹҮё иҘҝзҸӯзүҷ</text>
<rect x="170" y="144" width="404" height="22" fill="#d2991d" rx="3"/>
<text x="580" y="160" fill="#e6edf3" font-size="13" font-family="monospace" text-anchor="start" font-weight="bold">15.4%</text>
<text x="30" y="192" fill="#8b949e" font-size="12" font-family="monospace" text-anchor="end">4.</text>
<text x="40" y="192" fill="#e6edf3" font-size="12" font-family="monospace" text-anchor="start">рҹҸҙу Ғ§у Ғўу ҒҘу Ғ®у Ғ§у Ғҝ иӢұж је…°</text>
<rect x="170" y="176" width="311" height="22" fill="#f78166" rx="3"/>
<text x="487" y="192" fill="#e6edf3" font-size="13" font-family="monospace" text-anchor="start" font-weight="bold">11.9%</text>
<text x="30" y="224" fill="#8b949e" font-size="12" font-family="monospace" text-anchor="end">5.</text>
<text x="40" y="224" fill="#e6edf3" font-size="12" font-family="monospace" text-anchor="start">рҹҮ§рҹҮ· е·ҙиҘҝ</text>
<rect x="170" y="208" width="187" height="22" fill="#a371f7" rx="3"/>
<text x="363" y="224" fill="#e6edf3" font-size="13" font-family="monospace" text-anchor="start" font-weight="bold">7.1%</text>
<text x="30" y="256" fill="#8b949e" font-size="12" font-family="monospace" text-anchor="end">6.</text>
<text x="40" y="256" fill="#e6edf3" font-size="12" font-family="monospace" text-anchor="start">рҹҮөрҹҮ№ и‘Ўиҗ„зүҷ</text>
<rect x="170" y="240" width="163" height="22" fill="#79c0ff" rx="3"/>
<text x="339" y="256" fill="#e6edf3" font-size="13" font-family="monospace" text-anchor="start" font-weight="bold">6.2%</text>
<text x="30" y="288" fill="#8b949e" font-size="12" font-family="monospace" text-anchor="end">7.</text>
<text x="40" y="288" fill="#e6edf3" font-size="12" font-family="monospace" text-anchor="start">рҹҮ©рҹҮӘ еҫ·еӣҪ</text>
<rect x="170" y="272" width="139" height="22" fill="#56d364" rx="3"/>
<text x="315" y="288" fill="#e6edf3" font-size="13" font-family="monospace" text-anchor="start" font-weight="bold">5.3%</text>
<text x="30" y="320" fill="#8b949e" font-size="12" font-family="monospace" text-anchor="end">8.</text>
<text x="40" y="320" fill="#e6edf3" font-size="12" font-family="monospace" text-anchor="start">рҹҮірҹҮұ иҚ·е…°</text>
<rect x="170" y="304" width="79" height="22" fill="#e3b341" rx="3"/>
<text x="255" y="320" fill="#e6edf3" font-size="13" font-family="monospace" text-anchor="start" font-weight="bold">3.0%</text>
<text x="30" y="352" fill="#8b949e" font-size="12" font-family="monospace" text-anchor="end">9.</text>
<text x="40" y="352" fill="#e6edf3" font-size="12" font-family="monospace" text-anchor="start">рҹҮЁрҹҮҙ е“ҘдјҰжҜ”дәҡ</text>
<rect x="170" y="336" width="71" height="22" fill="#f0883e" rx="3"/>
<text x="247" y="352" fill="#e6edf3" font-size="13" font-family="monospace" text-anchor="start" font-weight="bold">2.7%</text>
<text x="30" y="384" fill="#8b949e" font-size="12" font-family="monospace" text-anchor="end">10.</text>
<text x="40" y="384" fill="#e6edf3" font-size="12" font-family="monospace" text-anchor="start">рҹҮірҹҮҙ жҢӘеЁҒ</text>
<rect x="170" y="368" width="69" height="22" fill="#bc8cff" rx="3"/>
<text x="245" y="384" fill="#e6edf3" font-size="13" font-family="monospace" text-anchor="start" font-weight="bold">2.7%</text>
<text x="630" y="536" fill="#8b949e" font-size="10" font-family="monospace" text-anchor="end">жӣҙж–° 2026-06-27 17:31 CST</text>
<text x="30" y="536" fill="#8b949e" font-size="9" font-family="monospace" text-anchor="start">ж•°жҚ®жқҘжәҗ cup26matches.com В· CC BY 4.0</text>
</svg>