<svg xmlns="http://www.w3.org/2000/svg" viewBox="0 0 600 420" width="900" height="630">
<rect x="0" y="0" width="600" height="420" fill="#0d1117"/>
<rect x="12" y="10" width="576" height="400" fill="#161b22" rx="8"/>
<text x="24" y="36" fill="#58a6ff" font-size="18" font-family="monospace" text-anchor="start" font-weight="bold">⚽ 接下来比赛预测 · Elo + 市场共识</text>
<text x="24" y="58" fill="#8b949e" font-size="12" font-family="monospace" text-anchor="start">Elo + Dixon-Coles 模型 · 混入 Polymarket 赔率 (40/60) · 胜/平/负</text>
<text x="24" y="86" fill="#8b949e" font-size="10" font-family="monospace" text-anchor="start">7/1</text>
<text x="100" y="86" fill="#e6edf3" font-size="11" font-family="monospace" text-anchor="start">🏴󠁧󠁢󠁥󠁮󠁧󠁿 英格兰  vs  🇨🇩 刚果(金)</text>
<rect x="300" y="73" width="129" height="12" fill="#3fb950" rx="3"/>
<rect x="429" y="73" width="30" height="12" fill="#d2991d"/>
<rect x="460" y="73" width="9" height="12" fill="#f85149" rx="3"/>
<text x="300" y="95" fill="#e6edf3" font-size="8" font-family="monospace" text-anchor="start">Elo 76% / 18% / 6%</text>
<text x="300" y="107" fill="#8b949e" font-size="8" font-family="monospace" text-anchor="start">预测比分: 2-0 (16%)  ·  1-0 (14%)  ·  3-0 (12%)</text>
<text x="24" y="134" fill="#8b949e" font-size="10" font-family="monospace" text-anchor="start">7/1</text>
<text x="100" y="134" fill="#e6edf3" font-size="11" font-family="monospace" text-anchor="start">🇺🇸 美国  vs  🇧🇦 波黑</text>
<rect x="300" y="121" width="116" height="12" fill="#3fb950" rx="3"/>
<rect x="416" y="121" width="36" height="12" fill="#d2991d"/>
<rect x="452" y="121" width="17" height="12" fill="#f85149" rx="3"/>
<text x="300" y="143" fill="#e6edf3" font-size="8" font-family="monospace" text-anchor="start">Elo 69% / 21% / 10%</text>
<text x="300" y="155" fill="#8b949e" font-size="8" font-family="monospace" text-anchor="start">预测比分: 2-0 (13%)  ·  1-0 (12%)  ·  1-1 (10%)</text>
<text x="24" y="182" fill="#8b949e" font-size="10" font-family="monospace" text-anchor="start">7/1</text>
<text x="100" y="182" fill="#e6edf3" font-size="11" font-family="monospace" text-anchor="start">🇧🇪 比利时  vs  🇸🇳 塞内加尔</text>
<rect x="300" y="169" width="66" height="12" fill="#3fb950" rx="3"/>
<rect x="366" y="169" width="49" height="12" fill="#d2991d"/>
<rect x="415" y="169" width="54" height="12" fill="#f85149" rx="3"/>
<text x="300" y="191" fill="#e6edf3" font-size="8" font-family="monospace" text-anchor="start">Elo 39% / 29% / 32%</text>
<text x="300" y="203" fill="#8b949e" font-size="8" font-family="monospace" text-anchor="start">预测比分: 1-1 (14%)  ·  2-1 (9%)  ·  0-0 (8%)</text>
<text x="24" y="230" fill="#8b949e" font-size="10" font-family="monospace" text-anchor="start">7/2</text>
<text x="100" y="230" fill="#e6edf3" font-size="11" font-family="monospace" text-anchor="start">🇵🇹 葡萄牙  vs  🇭🇷 克罗地亚</text>
<rect x="300" y="217" width="79" height="12" fill="#3fb950" rx="3"/>
<rect x="379" y="217" width="47" height="12" fill="#d2991d"/>
<rect x="426" y="217" width="43" height="12" fill="#f85149" rx="3"/>
<text x="300" y="239" fill="#e6edf3" font-size="8" font-family="monospace" text-anchor="start">Elo 47% / 28% / 25%</text>
<text x="300" y="251" fill="#8b949e" font-size="8" font-family="monospace" text-anchor="start">预测比分: 1-1 (13%)  ·  2-1 (9%)  ·  1-0 (9%)</text>
<text x="24" y="278" fill="#8b949e" font-size="10" font-family="monospace" text-anchor="start">7/2</text>
<text x="100" y="278" fill="#e6edf3" font-size="11" font-family="monospace" text-anchor="start">🇪🇸 西班牙  vs  🇦🇹 奥地利</text>
<rect x="300" y="265" width="119" height="12" fill="#3fb950" rx="3"/>
<rect x="419" y="265" width="35" height="12" fill="#d2991d"/>
<rect x="455" y="265" width="14" height="12" fill="#f85149" rx="3"/>
<text x="300" y="287" fill="#e6edf3" font-size="8" font-family="monospace" text-anchor="start">Elo 70% / 21% / 9%</text>
<text x="300" y="299" fill="#8b949e" font-size="8" font-family="monospace" text-anchor="start">预测比分: 2-0 (15%)  ·  1-0 (13%)  ·  3-0 (10%)</text>
<text x="24" y="326" fill="#8b949e" font-size="10" font-family="monospace" text-anchor="start">7/2</text>
<text x="100" y="326" fill="#e6edf3" font-size="11" font-family="monospace" text-anchor="start">🇨🇭 瑞士  vs  🇩🇿 阿尔及利亚</text>
<rect x="300" y="313" width="82" height="12" fill="#3fb950" rx="3"/>
<rect x="382" y="313" width="47" height="12" fill="#d2991d"/>
<rect x="429" y="313" width="40" height="12" fill="#f85149" rx="3"/>
<text x="300" y="335" fill="#e6edf3" font-size="8" font-family="monospace" text-anchor="start">Elo 48% / 28% / 24%</text>
<text x="300" y="347" fill="#8b949e" font-size="8" font-family="monospace" text-anchor="start">预测比分: 1-1 (13%)  ·  2-1 (10%)  ·  1-0 (9%)</text>
<text x="570" y="400" fill="#8b949e" font-size="9" font-family="monospace" text-anchor="end">更新 2026-07-01 04:11 CST</text>
</svg>