<svg xmlns="http://www.w3.org/2000/svg" viewBox="0 0 600 420" width="900" height="630">
<rect x="0" y="0" width="600" height="420" fill="#0d1117"/>
<rect x="12" y="10" width="576" height="400" fill="#161b22" rx="8"/>
<text x="24" y="36" fill="#58a6ff" font-size="18" font-family="monospace" text-anchor="start" font-weight="bold">вҡҪ жҺҘдёӢжқҘжҜ”иөӣйў„жөӢ В· Elo + еёӮеңәе…ұиҜҶ</text>
<text x="24" y="58" fill="#8b949e" font-size="12" font-family="monospace" text-anchor="start">Elo + Dixon-Coles жЁЎеһӢ В· ж··е…Ҙ Polymarket иө”зҺҮ (40/60) В· иғң/е№і/иҙҹ</text>
<text x="24" y="86" fill="#8b949e" font-size="10" font-family="monospace" text-anchor="start">7/7</text>
<text x="100" y="86" fill="#e6edf3" font-size="11" font-family="monospace" text-anchor="start">рҹҮҰрҹҮ· йҳҝж №е»·  vs  рҹҮӘрҹҮ¬ еҹғеҸҠ</text>
<rect x="300" y="73" width="117" height="12" fill="#3fb950" rx="3"/>
<rect x="417" y="73" width="36" height="12" fill="#d2991d"/>
<rect x="453" y="73" width="16" height="12" fill="#f85149" rx="3"/>
<text x="300" y="95" fill="#e6edf3" font-size="8" font-family="monospace" text-anchor="start">Elo 69% / 21% / 9%</text>
<text x="300" y="107" fill="#8b949e" font-size="8" font-family="monospace" text-anchor="start">йў„жөӢжҜ”еҲҶ: 2-0 (14%)  В·  1-0 (13%)  В·  1-1 (10%)</text>
<text x="24" y="134" fill="#8b949e" font-size="10" font-family="monospace" text-anchor="start">7/7</text>
<text x="100" y="134" fill="#e6edf3" font-size="11" font-family="monospace" text-anchor="start">рҹҮЁрҹҮӯ з‘һеЈ«  vs  рҹҮЁрҹҮҙ е“ҘдјҰжҜ”дәҡ</text>
<rect x="300" y="121" width="47" height="12" fill="#3fb950" rx="3"/>
<rect x="347" y="121" width="48" height="12" fill="#d2991d"/>
<rect x="396" y="121" width="73" height="12" fill="#f85149" rx="3"/>
<text x="300" y="143" fill="#e6edf3" font-size="8" font-family="monospace" text-anchor="start">Elo 28% / 29% / 43%</text>
<text x="300" y="155" fill="#8b949e" font-size="8" font-family="monospace" text-anchor="start">йў„жөӢжҜ”еҲҶ: 1-1 (14%)  В·  1-2 (9%)  В·  0-1 (9%)</text>
<text x="24" y="182" fill="#8b949e" font-size="10" font-family="monospace" text-anchor="start">7/9</text>
<text x="100" y="182" fill="#e6edf3" font-size="11" font-family="monospace" text-anchor="start">рҹҮ«рҹҮ· жі•еӣҪ  vs  рҹҮІрҹҮҰ ж‘©жҙӣе“Ҙ</text>
<rect x="300" y="169" width="87" height="12" fill="#3fb950" rx="3"/>
<rect x="387" y="169" width="46" height="12" fill="#d2991d"/>
<rect x="434" y="169" width="35" height="12" fill="#f85149" rx="3"/>
<text x="300" y="191" fill="#e6edf3" font-size="8" font-family="monospace" text-anchor="start">Elo 52% / 27% / 21%</text>
<text x="300" y="203" fill="#8b949e" font-size="8" font-family="monospace" text-anchor="start">йў„жөӢжҜ”еҲҶ: 1-1 (13%)  В·  1-0 (10%)  В·  2-1 (10%)</text>
<text x="24" y="230" fill="#8b949e" font-size="10" font-family="monospace" text-anchor="start">7/11</text>
<text x="100" y="230" fill="#e6edf3" font-size="11" font-family="monospace" text-anchor="start">рҹҮірҹҮҙ жҢӘеЁҒ  vs  рҹҸҙу Ғ§у Ғўу ҒҘу Ғ®у Ғ§у Ғҝ иӢұж је…°</text>
<rect x="300" y="217" width="39" height="12" fill="#3fb950" rx="3"/>
<rect x="339" y="217" width="45" height="12" fill="#d2991d"/>
<rect x="384" y="217" width="85" height="12" fill="#f85149" rx="3"/>
<text x="300" y="239" fill="#e6edf3" font-size="8" font-family="monospace" text-anchor="start">ж··23% / 27% / 50%</text>
<text x="300" y="251" fill="#8b949e" font-size="8" font-family="monospace" text-anchor="start">йў„жөӢжҜ”еҲҶ: 1-1 (13%)  В·  1-2 (10%)  В·  0-1 (9%)</text>
<text x="570" y="400" fill="#8b949e" font-size="9" font-family="monospace" text-anchor="end">жӣҙж–° 2026-07-07 06:16 CST</text>
</svg>