<svg xmlns="http://www.w3.org/2000/svg" viewBox="0 0 600 420" width="900" height="630">
<rect x="0" y="0" width="600" height="420" fill="#0d1117"/>
<rect x="12" y="10" width="576" height="400" fill="#161b22" rx="8"/>
<text x="24" y="36" fill="#58a6ff" font-size="18" font-family="monospace" text-anchor="start" font-weight="bold">⚽ 接下来比赛预测 · Elo + 市场共识</text>
<text x="24" y="58" fill="#8b949e" font-size="12" font-family="monospace" text-anchor="start">Elo + Dixon-Coles 模型 · 混入 Polymarket 赔率 (40/60) · 胜/平/负</text>
<text x="24" y="86" fill="#8b949e" font-size="10" font-family="monospace" text-anchor="start">7/2</text>
<text x="100" y="86" fill="#e6edf3" font-size="11" font-family="monospace" text-anchor="start">🇵🇹 葡萄牙  vs  🇭🇷 克罗地亚</text>
<rect x="300" y="73" width="79" height="12" fill="#3fb950" rx="3"/>
<rect x="379" y="73" width="47" height="12" fill="#d2991d"/>
<rect x="426" y="73" width="43" height="12" fill="#f85149" rx="3"/>
<text x="300" y="95" fill="#e6edf3" font-size="8" font-family="monospace" text-anchor="start">Elo 47% / 28% / 25%</text>
<text x="300" y="107" fill="#8b949e" font-size="8" font-family="monospace" text-anchor="start">预测比分: 1-1 (13%)  ·  2-1 (9%)  ·  1-0 (9%)</text>
<text x="24" y="134" fill="#8b949e" font-size="10" font-family="monospace" text-anchor="start">7/2</text>
<text x="100" y="134" fill="#e6edf3" font-size="11" font-family="monospace" text-anchor="start">🇪🇸 西班牙  vs  🇦🇹 奥地利</text>
<rect x="300" y="121" width="119" height="12" fill="#3fb950" rx="3"/>
<rect x="419" y="121" width="35" height="12" fill="#d2991d"/>
<rect x="455" y="121" width="14" height="12" fill="#f85149" rx="3"/>
<text x="300" y="143" fill="#e6edf3" font-size="8" font-family="monospace" text-anchor="start">Elo 70% / 21% / 9%</text>
<text x="300" y="155" fill="#8b949e" font-size="8" font-family="monospace" text-anchor="start">预测比分: 2-0 (15%)  ·  1-0 (13%)  ·  3-0 (10%)</text>
<text x="24" y="182" fill="#8b949e" font-size="10" font-family="monospace" text-anchor="start">7/2</text>
<text x="100" y="182" fill="#e6edf3" font-size="11" font-family="monospace" text-anchor="start">🇨🇭 瑞士  vs  🇩🇿 阿尔及利亚</text>
<rect x="300" y="169" width="82" height="12" fill="#3fb950" rx="3"/>
<rect x="382" y="169" width="47" height="12" fill="#d2991d"/>
<rect x="429" y="169" width="40" height="12" fill="#f85149" rx="3"/>
<text x="300" y="191" fill="#e6edf3" font-size="8" font-family="monospace" text-anchor="start">Elo 48% / 28% / 24%</text>
<text x="300" y="203" fill="#8b949e" font-size="8" font-family="monospace" text-anchor="start">预测比分: 1-1 (13%)  ·  2-1 (10%)  ·  1-0 (9%)</text>
<text x="24" y="230" fill="#8b949e" font-size="10" font-family="monospace" text-anchor="start">7/3</text>
<text x="100" y="230" fill="#e6edf3" font-size="11" font-family="monospace" text-anchor="start">🇦🇷 阿根廷  vs  🇨🇻 佛得角</text>
<rect x="300" y="217" width="135" height="12" fill="#3fb950" rx="3"/>
<rect x="435" y="217" width="27" height="12" fill="#d2991d"/>
<rect x="462" y="217" width="7" height="12" fill="#f85149" rx="3"/>
<text x="300" y="239" fill="#e6edf3" font-size="8" font-family="monospace" text-anchor="start">Elo 79% / 16% / 4%</text>
<text x="300" y="251" fill="#8b949e" font-size="8" font-family="monospace" text-anchor="start">预测比分: 2-0 (18%)  ·  1-0 (15%)  ·  3-0 (13%)</text>
<text x="24" y="278" fill="#8b949e" font-size="10" font-family="monospace" text-anchor="start">7/3</text>
<text x="100" y="278" fill="#e6edf3" font-size="11" font-family="monospace" text-anchor="start">🇨🇴 哥伦比亚  vs  🇬🇭 加纳</text>
<rect x="300" y="265" width="105" height="12" fill="#3fb950" rx="3"/>
<rect x="405" y="265" width="41" height="12" fill="#d2991d"/>
<rect x="446" y="265" width="23" height="12" fill="#f85149" rx="3"/>
<text x="300" y="287" fill="#e6edf3" font-size="8" font-family="monospace" text-anchor="start">Elo 62% / 24% / 14%</text>
<text x="300" y="299" fill="#8b949e" font-size="8" font-family="monospace" text-anchor="start">预测比分: 2-0 (12%)  ·  1-1 (12%)  ·  1-0 (11%)</text>
<text x="24" y="326" fill="#8b949e" font-size="10" font-family="monospace" text-anchor="start">7/3</text>
<text x="100" y="326" fill="#e6edf3" font-size="11" font-family="monospace" text-anchor="start">🇦🇺 澳大利亚  vs  🇪🇬 埃及</text>
<rect x="300" y="313" width="75" height="12" fill="#3fb950" rx="3"/>
<rect x="375" y="313" width="48" height="12" fill="#d2991d"/>
<rect x="424" y="313" width="45" height="12" fill="#f85149" rx="3"/>
<text x="300" y="335" fill="#e6edf3" font-size="8" font-family="monospace" text-anchor="start">Elo 45% / 28% / 27%</text>
<text x="300" y="347" fill="#8b949e" font-size="8" font-family="monospace" text-anchor="start">预测比分: 1-1 (14%)  ·  2-1 (9%)  ·  1-0 (9%)</text>
<text x="570" y="400" fill="#8b949e" font-size="9" font-family="monospace" text-anchor="end">更新 2026-07-02 17:18 CST</text>
</svg>