<svg xmlns="http://www.w3.org/2000/svg" viewBox="0 0 600 400" width="900" height="600">
<rect x="0" y="0" width="600" height="400" fill="#0d1117"/>
<rect x="12" y="10" width="576" height="380" fill="#161b22" rx="8"/>
<text x="24" y="36" fill="#58a6ff" font-size="18" font-family="monospace" text-anchor="start" font-weight="bold">⚽ 接下来比赛预测 · Elo + 市场共识</text>
<text x="24" y="58" fill="#8b949e" font-size="12" font-family="monospace" text-anchor="start">Elo + Dixon-Coles 模型 · 混入 Polymarket 赔率 (40/60) · 胜/平/负</text>
<text x="24" y="88" fill="#8b949e" font-size="10" font-family="monospace" text-anchor="start">6/18</text>
<text x="100" y="88" fill="#e6edf3" font-size="11" font-family="monospace" text-anchor="start">🇨🇿 捷克  vs  🇿🇦 南非</text>
<rect x="300" y="74" width="72" height="14" fill="#3fb950" rx="3"/>
<rect x="372" y="74" width="48" height="14" fill="#d2991d"/>
<rect x="421" y="74" width="48" height="14" fill="#f85149" rx="3"/>
<text x="300" y="98" fill="#e6edf3" font-size="8" font-family="monospace" text-anchor="start">Elo 43% / 29% / 29%</text>
<text x="24" y="126" fill="#8b949e" font-size="10" font-family="monospace" text-anchor="start">6/18</text>
<text x="100" y="126" fill="#e6edf3" font-size="11" font-family="monospace" text-anchor="start">🇨🇭 瑞士  vs  🇧🇦 波黑</text>
<rect x="300" y="112" width="103" height="14" fill="#3fb950" rx="3"/>
<rect x="403" y="112" width="41" height="14" fill="#d2991d"/>
<rect x="445" y="112" width="24" height="14" fill="#f85149" rx="3"/>
<text x="300" y="136" fill="#e6edf3" font-size="8" font-family="monospace" text-anchor="start">Elo 61% / 25% / 15%</text>
<text x="24" y="164" fill="#8b949e" font-size="10" font-family="monospace" text-anchor="start">6/18</text>
<text x="100" y="164" fill="#e6edf3" font-size="11" font-family="monospace" text-anchor="start">🇨🇦 加拿大  vs  🇶🇦 卡塔尔</text>
<rect x="300" y="150" width="117" height="14" fill="#3fb950" rx="3"/>
<rect x="417" y="150" width="33" height="14" fill="#d2991d"/>
<rect x="450" y="150" width="19" height="14" fill="#f85149" rx="3"/>
<text x="300" y="174" fill="#e6edf3" font-size="8" font-family="monospace" text-anchor="start">混69% / 20% / 11%</text>
<text x="478" y="174" fill="#d2991d" font-size="8" font-family="monospace" text-anchor="start">← 混</text>
<text x="24" y="202" fill="#8b949e" font-size="10" font-family="monospace" text-anchor="start">6/18</text>
<text x="100" y="202" fill="#e6edf3" font-size="11" font-family="monospace" text-anchor="start">🇲🇽 墨西哥  vs  🇰🇷 韩国</text>
<rect x="300" y="188" width="86" height="14" fill="#3fb950" rx="3"/>
<rect x="386" y="188" width="45" height="14" fill="#d2991d"/>
<rect x="432" y="188" width="37" height="14" fill="#f85149" rx="3"/>
<text x="300" y="212" fill="#e6edf3" font-size="8" font-family="monospace" text-anchor="start">Elo 51% / 27% / 22%</text>
<text x="24" y="240" fill="#8b949e" font-size="10" font-family="monospace" text-anchor="start">6/19</text>
<text x="100" y="240" fill="#e6edf3" font-size="11" font-family="monospace" text-anchor="start">🏴 苏格兰  vs  🇲🇦 摩洛哥</text>
<rect x="300" y="226" width="27" height="14" fill="#3fb950" rx="3"/>
<rect x="327" y="226" width="43" height="14" fill="#d2991d"/>
<rect x="371" y="226" width="98" height="14" fill="#f85149" rx="3"/>
<text x="300" y="250" fill="#e6edf3" font-size="8" font-family="monospace" text-anchor="start">混16% / 26% / 58%</text>
<text x="478" y="250" fill="#d2991d" font-size="8" font-family="monospace" text-anchor="start">← 混</text>
<text x="24" y="278" fill="#8b949e" font-size="10" font-family="monospace" text-anchor="start">6/19</text>
<text x="100" y="278" fill="#e6edf3" font-size="11" font-family="monospace" text-anchor="start">🇭🇹 海地  vs  🇧🇷 巴西</text>
<rect x="300" y="264" width="5" height="14" fill="#3fb950" rx="3"/>
<rect x="305" y="264" width="17" height="14" fill="#d2991d"/>
<rect x="323" y="264" width="146" height="14" fill="#f85149" rx="3"/>
<text x="300" y="288" fill="#e6edf3" font-size="8" font-family="monospace" text-anchor="start">混4% / 10% / 86%</text>
<text x="478" y="288" fill="#d2991d" font-size="8" font-family="monospace" text-anchor="start">← 混</text>
<text x="570" y="380" fill="#8b949e" font-size="9" font-family="monospace" text-anchor="end">更新 2026-06-18 06:03 CST</text>
</svg>