<svg xmlns="http://www.w3.org/2000/svg" viewBox="0 0 600 420" width="900" height="630">
<rect x="0" y="0" width="600" height="420" fill="#0d1117"/>
<rect x="12" y="10" width="576" height="400" fill="#161b22" rx="8"/>
<text x="24" y="36" fill="#58a6ff" font-size="18" font-family="monospace" text-anchor="start" font-weight="bold">⚽ 接下来比赛预测 · Elo + 市场共识</text>
<text x="24" y="58" fill="#8b949e" font-size="12" font-family="monospace" text-anchor="start">Elo + Dixon-Coles 模型 · 混入 Polymarket 赔率 (40/60) · 胜/平/负</text>
<text x="24" y="86" fill="#8b949e" font-size="10" font-family="monospace" text-anchor="start">6/28</text>
<text x="100" y="86" fill="#e6edf3" font-size="11" font-family="monospace" text-anchor="start">🇿🇦 南非  vs  🇨🇦 加拿大</text>
<rect x="300" y="73" width="30" height="12" fill="#3fb950" rx="3"/>
<rect x="330" y="73" width="46" height="12" fill="#d2991d"/>
<rect x="376" y="73" width="93" height="12" fill="#f85149" rx="3"/>
<text x="300" y="95" fill="#e6edf3" font-size="8" font-family="monospace" text-anchor="start">混18% / 27% / 55%</text>
<text x="300" y="107" fill="#8b949e" font-size="8" font-family="monospace" text-anchor="start">预测比分: 1-1 (13%)  ·  0-1 (10%)  ·  0-2 (10%)</text>
<text x="24" y="134" fill="#8b949e" font-size="10" font-family="monospace" text-anchor="start">6/29</text>
<text x="100" y="134" fill="#e6edf3" font-size="11" font-family="monospace" text-anchor="start">🇳🇱 荷兰  vs  🇲🇦 摩洛哥</text>
<rect x="300" y="121" width="71" height="12" fill="#3fb950" rx="3"/>
<rect x="371" y="121" width="50" height="12" fill="#d2991d"/>
<rect x="422" y="121" width="47" height="12" fill="#f85149" rx="3"/>
<text x="300" y="143" fill="#e6edf3" font-size="8" font-family="monospace" text-anchor="start">混42% / 30% / 28%</text>
<text x="300" y="155" fill="#8b949e" font-size="8" font-family="monospace" text-anchor="start">预测比分: 1-1 (14%)  ·  2-1 (9%)  ·  0-0 (8%)</text>
<text x="24" y="182" fill="#8b949e" font-size="10" font-family="monospace" text-anchor="start">6/29</text>
<text x="100" y="182" fill="#e6edf3" font-size="11" font-family="monospace" text-anchor="start">🇧🇷 巴西  vs  🇯🇵 日本</text>
<rect x="300" y="169" width="93" height="12" fill="#3fb950" rx="3"/>
<rect x="393" y="169" width="43" height="12" fill="#d2991d"/>
<rect x="436" y="169" width="33" height="12" fill="#f85149" rx="3"/>
<text x="300" y="191" fill="#e6edf3" font-size="8" font-family="monospace" text-anchor="start">混55% / 26% / 20%</text>
<text x="300" y="203" fill="#8b949e" font-size="8" font-family="monospace" text-anchor="start">预测比分: 1-1 (13%)  ·  1-0 (10%)  ·  2-1 (10%)</text>
<text x="570" y="400" fill="#8b949e" font-size="9" font-family="monospace" text-anchor="end">更新 2026-06-28 05:08 CST</text>
</svg>