<svg xmlns="http://www.w3.org/2000/svg" viewBox="0 0 600 400" width="900" height="600">
<rect x="0" y="0" width="600" height="400" fill="#0d1117"/>
<rect x="12" y="10" width="576" height="380" fill="#161b22" rx="8"/>
<text x="24" y="36" fill="#58a6ff" font-size="18" font-family="monospace" text-anchor="start" font-weight="bold">⚽ 接下来比赛预测 · Elo + 市场共识</text>
<text x="24" y="58" fill="#8b949e" font-size="12" font-family="monospace" text-anchor="start">Elo + Dixon-Coles 模型 · 混入 Polymarket 赔率 (40/60) · 胜/平/负</text>
<text x="24" y="88" fill="#8b949e" font-size="10" font-family="monospace" text-anchor="start">6/17</text>
<text x="100" y="88" fill="#e6edf3" font-size="11" font-family="monospace" text-anchor="start">🇦🇹 奥地利  vs  🇯🇴 约旦</text>
<rect x="300" y="74" width="109" height="14" fill="#3fb950" rx="3"/>
<rect x="409" y="74" width="37" height="14" fill="#d2991d"/>
<rect x="447" y="74" width="22" height="14" fill="#f85149" rx="3"/>
<text x="300" y="98" fill="#e6edf3" font-size="8" font-family="monospace" text-anchor="start">混64% / 22% / 14%</text>
<text x="478" y="98" fill="#d2991d" font-size="8" font-family="monospace" text-anchor="start">← 混</text>
<text x="24" y="126" fill="#8b949e" font-size="10" font-family="monospace" text-anchor="start">6/17</text>
<text x="100" y="126" fill="#e6edf3" font-size="11" font-family="monospace" text-anchor="start">🇵🇹 葡萄牙  vs  🇨🇩 刚果(金)</text>
<rect x="300" y="112" width="125" height="14" fill="#3fb950" rx="3"/>
<rect x="425" y="112" width="31" height="14" fill="#d2991d"/>
<rect x="456" y="112" width="13" height="14" fill="#f85149" rx="3"/>
<text x="300" y="136" fill="#e6edf3" font-size="8" font-family="monospace" text-anchor="start">混74% / 18% / 8%</text>
<text x="478" y="136" fill="#d2991d" font-size="8" font-family="monospace" text-anchor="start">← 混</text>
<text x="24" y="164" fill="#8b949e" font-size="10" font-family="monospace" text-anchor="start">6/17</text>
<text x="100" y="164" fill="#e6edf3" font-size="11" font-family="monospace" text-anchor="start">🏴󠁧󠁢󠁥󠁮󠁧󠁿 英格兰  vs  🇭🇷 克罗地亚</text>
<rect x="300" y="150" width="92" height="14" fill="#3fb950" rx="3"/>
<rect x="392" y="150" width="44" height="14" fill="#d2991d"/>
<rect x="437" y="150" width="32" height="14" fill="#f85149" rx="3"/>
<text x="300" y="174" fill="#e6edf3" font-size="8" font-family="monospace" text-anchor="start">混55% / 26% / 19%</text>
<text x="478" y="174" fill="#d2991d" font-size="8" font-family="monospace" text-anchor="start">← 混</text>
<text x="24" y="202" fill="#8b949e" font-size="10" font-family="monospace" text-anchor="start">6/17</text>
<text x="100" y="202" fill="#e6edf3" font-size="11" font-family="monospace" text-anchor="start">🇬🇭 加纳  vs  🇵🇦 巴拿马</text>
<rect x="300" y="188" width="70" height="14" fill="#3fb950" rx="3"/>
<rect x="370" y="188" width="49" height="14" fill="#d2991d"/>
<rect x="420" y="188" width="49" height="14" fill="#f85149" rx="3"/>
<text x="300" y="212" fill="#e6edf3" font-size="8" font-family="monospace" text-anchor="start">混42% / 29% / 29%</text>
<text x="478" y="212" fill="#d2991d" font-size="8" font-family="monospace" text-anchor="start">← 混</text>
<text x="24" y="240" fill="#8b949e" font-size="10" font-family="monospace" text-anchor="start">6/17</text>
<text x="100" y="240" fill="#e6edf3" font-size="11" font-family="monospace" text-anchor="start">🇺🇿 乌兹别克斯坦  vs  🇨🇴 哥伦比亚</text>
<rect x="300" y="226" width="17" height="14" fill="#3fb950" rx="3"/>
<rect x="317" y="226" width="35" height="14" fill="#d2991d"/>
<rect x="353" y="226" width="116" height="14" fill="#f85149" rx="3"/>
<text x="300" y="250" fill="#e6edf3" font-size="8" font-family="monospace" text-anchor="start">混10% / 21% / 69%</text>
<text x="478" y="250" fill="#d2991d" font-size="8" font-family="monospace" text-anchor="start">← 混</text>
<text x="24" y="278" fill="#8b949e" font-size="10" font-family="monospace" text-anchor="start">6/18</text>
<text x="100" y="278" fill="#e6edf3" font-size="11" font-family="monospace" text-anchor="start">🇨🇿 捷克  vs  🇿🇦 南非</text>
<rect x="300" y="264" width="72" height="14" fill="#3fb950" rx="3"/>
<rect x="372" y="264" width="48" height="14" fill="#d2991d"/>
<rect x="421" y="264" width="48" height="14" fill="#f85149" rx="3"/>
<text x="300" y="288" fill="#e6edf3" font-size="8" font-family="monospace" text-anchor="start">Elo 43% / 29% / 29%</text>
<text x="570" y="380" fill="#8b949e" font-size="9" font-family="monospace" text-anchor="end">更新 2026-06-17 09:00 CST</text>
</svg>