<svg xmlns="http://www.w3.org/2000/svg" viewBox="0 0 600 420" width="900" height="630">
<rect x="0" y="0" width="600" height="420" fill="#0d1117"/>
<rect x="12" y="10" width="576" height="400" fill="#161b22" rx="8"/>
<text x="24" y="36" fill="#58a6ff" font-size="18" font-family="monospace" text-anchor="start" font-weight="bold">⚽ 接下来比赛预测 · Elo + 市场共识</text>
<text x="24" y="58" fill="#8b949e" font-size="12" font-family="monospace" text-anchor="start">Elo + Dixon-Coles 模型 · 混入 Polymarket 赔率 (40/60) · 胜/平/负</text>
<text x="24" y="86" fill="#8b949e" font-size="10" font-family="monospace" text-anchor="start">6/28</text>
<text x="100" y="86" fill="#e6edf3" font-size="11" font-family="monospace" text-anchor="start">🇿🇦 南非  vs  🇨🇦 加拿大</text>
<rect x="300" y="73" width="29" height="12" fill="#3fb950" rx="3"/>
<rect x="329" y="73" width="44" height="12" fill="#d2991d"/>
<rect x="373" y="73" width="96" height="12" fill="#f85149" rx="3"/>
<text x="300" y="95" fill="#e6edf3" font-size="8" font-family="monospace" text-anchor="start">混17% / 26% / 57%</text>
<text x="300" y="107" fill="#8b949e" font-size="8" font-family="monospace" text-anchor="start">预测比分: 1-1 (13%)  ·  0-1 (10%)  ·  0-2 (10%)</text>
<text x="24" y="134" fill="#8b949e" font-size="10" font-family="monospace" text-anchor="start">6/29</text>
<text x="100" y="134" fill="#e6edf3" font-size="11" font-family="monospace" text-anchor="start">🇩🇪 德国  vs  🇵🇾 巴拉圭</text>
<rect x="300" y="121" width="118" height="12" fill="#3fb950" rx="3"/>
<rect x="418" y="121" width="34" height="12" fill="#d2991d"/>
<rect x="453" y="121" width="16" height="12" fill="#f85149" rx="3"/>
<text x="300" y="143" fill="#e6edf3" font-size="8" font-family="monospace" text-anchor="start">混70% / 20% / 10%</text>
<text x="300" y="155" fill="#8b949e" font-size="8" font-family="monospace" text-anchor="start">预测比分: 2-0 (13%)  ·  1-0 (12%)  ·  1-1 (11%)</text>
<text x="24" y="182" fill="#8b949e" font-size="10" font-family="monospace" text-anchor="start">6/29</text>
<text x="100" y="182" fill="#e6edf3" font-size="11" font-family="monospace" text-anchor="start">🇳🇱 荷兰  vs  🇲🇦 摩洛哥</text>
<rect x="300" y="169" width="71" height="12" fill="#3fb950" rx="3"/>
<rect x="371" y="169" width="50" height="12" fill="#d2991d"/>
<rect x="422" y="169" width="47" height="12" fill="#f85149" rx="3"/>
<text x="300" y="191" fill="#e6edf3" font-size="8" font-family="monospace" text-anchor="start">混42% / 30% / 28%</text>
<text x="300" y="203" fill="#8b949e" font-size="8" font-family="monospace" text-anchor="start">预测比分: 1-1 (14%)  ·  2-1 (9%)  ·  0-0 (8%)</text>
<text x="24" y="230" fill="#8b949e" font-size="10" font-family="monospace" text-anchor="start">6/29</text>
<text x="100" y="230" fill="#e6edf3" font-size="11" font-family="monospace" text-anchor="start">🇧🇷 巴西  vs  🇯🇵 日本</text>
<rect x="300" y="217" width="92" height="12" fill="#3fb950" rx="3"/>
<rect x="392" y="217" width="44" height="12" fill="#d2991d"/>
<rect x="436" y="217" width="33" height="12" fill="#f85149" rx="3"/>
<text x="300" y="239" fill="#e6edf3" font-size="8" font-family="monospace" text-anchor="start">混54% / 26% / 20%</text>
<text x="300" y="251" fill="#8b949e" font-size="8" font-family="monospace" text-anchor="start">预测比分: 1-1 (13%)  ·  1-0 (10%)  ·  2-1 (10%)</text>
<text x="24" y="278" fill="#8b949e" font-size="10" font-family="monospace" text-anchor="start">6/30</text>
<text x="100" y="278" fill="#e6edf3" font-size="11" font-family="monospace" text-anchor="start">🇫🇷 法国  vs  🇸🇪 瑞典</text>
<rect x="300" y="265" width="123" height="12" fill="#3fb950" rx="3"/>
<rect x="423" y="265" width="31" height="12" fill="#d2991d"/>
<rect x="454" y="265" width="15" height="12" fill="#f85149" rx="3"/>
<text x="300" y="287" fill="#e6edf3" font-size="8" font-family="monospace" text-anchor="start">混73% / 18% / 9%</text>
<text x="300" y="299" fill="#8b949e" font-size="8" font-family="monospace" text-anchor="start">预测比分: 2-0 (13%)  ·  1-0 (12%)  ·  1-1 (11%)</text>
<text x="24" y="326" fill="#8b949e" font-size="10" font-family="monospace" text-anchor="start">6/30</text>
<text x="100" y="326" fill="#e6edf3" font-size="11" font-family="monospace" text-anchor="start">🇨🇮 科特迪瓦  vs  🇳🇴 挪威</text>
<rect x="300" y="313" width="33" height="12" fill="#3fb950" rx="3"/>
<rect x="333" y="313" width="45" height="12" fill="#d2991d"/>
<rect x="379" y="313" width="90" height="12" fill="#f85149" rx="3"/>
<text x="300" y="335" fill="#e6edf3" font-size="8" font-family="monospace" text-anchor="start">Elo 20% / 27% / 53%</text>
<text x="300" y="347" fill="#8b949e" font-size="8" font-family="monospace" text-anchor="start">预测比分: 1-1 (13%)  ·  0-1 (10%)  ·  0-2 (10%)</text>
<text x="570" y="400" fill="#8b949e" font-size="9" font-family="monospace" text-anchor="end">更新 2026-06-28 21:55 CST</text>
</svg>