<svg xmlns="http://www.w3.org/2000/svg" viewBox="0 0 600 420" width="900" height="630">
<rect x="0" y="0" width="600" height="420" fill="#0d1117"/>
<rect x="12" y="10" width="576" height="400" fill="#161b22" rx="8"/>
<text x="24" y="36" fill="#58a6ff" font-size="18" font-family="monospace" text-anchor="start" font-weight="bold">⚽ 接下来比赛预测 · Elo + 市场共识</text>
<text x="24" y="58" fill="#8b949e" font-size="12" font-family="monospace" text-anchor="start">Elo + Dixon-Coles 模型 · 混入 Polymarket 赔率 (40/60) · 胜/平/负</text>
<text x="24" y="86" fill="#8b949e" font-size="10" font-family="monospace" text-anchor="start">6/27</text>
<text x="100" y="86" fill="#e6edf3" font-size="11" font-family="monospace" text-anchor="start">🇩🇿 阿尔及利亚  vs  🇦🇹 奥地利</text>
<rect x="300" y="73" width="48" height="12" fill="#3fb950" rx="3"/>
<rect x="348" y="73" width="67" height="12" fill="#d2991d"/>
<rect x="415" y="73" width="54" height="12" fill="#f85149" rx="3"/>
<text x="300" y="95" fill="#e6edf3" font-size="8" font-family="monospace" text-anchor="start">混28% / 40% / 32%</text>
<text x="300" y="107" fill="#8b949e" font-size="8" font-family="monospace" text-anchor="start">预测比分: 1-1 (14%)  ·  1-2 (8%)  ·  0-0 (8%)</text>
<text x="24" y="134" fill="#8b949e" font-size="10" font-family="monospace" text-anchor="start">6/27</text>
<text x="100" y="134" fill="#e6edf3" font-size="11" font-family="monospace" text-anchor="start">🇯🇴 约旦  vs  🇦🇷 阿根廷</text>
<rect x="300" y="121" width="6" height="12" fill="#3fb950" rx="3"/>
<rect x="306" y="121" width="18" height="12" fill="#d2991d"/>
<rect x="325" y="121" width="144" height="12" fill="#f85149" rx="3"/>
<text x="300" y="143" fill="#e6edf3" font-size="8" font-family="monospace" text-anchor="start">混4% / 11% / 85%</text>
<text x="300" y="155" fill="#8b949e" font-size="8" font-family="monospace" text-anchor="start">预测比分: 0-2 (19%)  ·  0-3 (16%)  ·  0-1 (15%)</text>
<text x="24" y="182" fill="#8b949e" font-size="10" font-family="monospace" text-anchor="start">6/27</text>
<text x="100" y="182" fill="#e6edf3" font-size="11" font-family="monospace" text-anchor="start">🇨🇴 哥伦比亚  vs  🇵🇹 葡萄牙</text>
<rect x="300" y="169" width="45" height="12" fill="#3fb950" rx="3"/>
<rect x="345" y="169" width="44" height="12" fill="#d2991d"/>
<rect x="390" y="169" width="79" height="12" fill="#f85149" rx="3"/>
<text x="300" y="191" fill="#e6edf3" font-size="8" font-family="monospace" text-anchor="start">混27% / 26% / 47%</text>
<text x="300" y="203" fill="#8b949e" font-size="8" font-family="monospace" text-anchor="start">预测比分: 1-1 (14%)  ·  1-2 (9%)  ·  0-1 (9%)</text>
<text x="24" y="230" fill="#8b949e" font-size="10" font-family="monospace" text-anchor="start">6/27</text>
<text x="100" y="230" fill="#e6edf3" font-size="11" font-family="monospace" text-anchor="start">🇨🇩 刚果(金)  vs  🇺🇿 乌兹别克斯坦</text>
<rect x="300" y="217" width="84" height="12" fill="#3fb950" rx="3"/>
<rect x="384" y="217" width="44" height="12" fill="#d2991d"/>
<rect x="429" y="217" width="40" height="12" fill="#f85149" rx="3"/>
<text x="300" y="239" fill="#e6edf3" font-size="8" font-family="monospace" text-anchor="start">混50% / 26% / 24%</text>
<text x="300" y="251" fill="#8b949e" font-size="8" font-family="monospace" text-anchor="start">预测比分: 1-1 (14%)  ·  2-1 (9%)  ·  0-0 (8%)</text>
<text x="24" y="278" fill="#8b949e" font-size="10" font-family="monospace" text-anchor="start">6/27</text>
<text x="100" y="278" fill="#e6edf3" font-size="11" font-family="monospace" text-anchor="start">🇵🇦 巴拿马  vs  🏴󠁧󠁢󠁥󠁮󠁧󠁿 英格兰</text>
<rect x="300" y="265" width="7" height="12" fill="#3fb950" rx="3"/>
<rect x="307" y="265" width="21" height="12" fill="#d2991d"/>
<rect x="329" y="265" width="140" height="12" fill="#f85149" rx="3"/>
<text x="300" y="287" fill="#e6edf3" font-size="8" font-family="monospace" text-anchor="start">混4% / 13% / 83%</text>
<text x="300" y="299" fill="#8b949e" font-size="8" font-family="monospace" text-anchor="start">预测比分: 0-2 (18%)  ·  0-1 (15%)  ·  0-3 (14%)</text>
<text x="24" y="326" fill="#8b949e" font-size="10" font-family="monospace" text-anchor="start">6/27</text>
<text x="100" y="326" fill="#e6edf3" font-size="11" font-family="monospace" text-anchor="start">🇭🇷 克罗地亚  vs  🇬🇭 加纳</text>
<rect x="300" y="313" width="92" height="12" fill="#3fb950" rx="3"/>
<rect x="392" y="313" width="48" height="12" fill="#d2991d"/>
<rect x="440" y="313" width="29" height="12" fill="#f85149" rx="3"/>
<text x="300" y="335" fill="#e6edf3" font-size="8" font-family="monospace" text-anchor="start">混54% / 28% / 17%</text>
<text x="300" y="347" fill="#8b949e" font-size="8" font-family="monospace" text-anchor="start">预测比分: 1-1 (12%)  ·  2-0 (11%)  ·  1-0 (11%)</text>
<text x="570" y="400" fill="#8b949e" font-size="9" font-family="monospace" text-anchor="end">更新 2026-06-27 23:18 CST</text>
</svg>