<svg xmlns="http://www.w3.org/2000/svg" viewBox="0 0 520 320" width="780" height="480">
<rect x="0" y="0" width="520" height="320" fill="#0d1117"/>
<rect x="12" y="10" width="496" height="300" fill="#161b22" rx="8"/>
<text x="30" y="38" fill="#58a6ff" font-size="18" font-family="monospace" text-anchor="start" font-weight="bold">📅 即将到来 / Upcoming Predictions</text>
<text x="30" y="80" fill="#8b949e" font-size="10" font-family="monospace" text-anchor="start">6/21</text>
<text x="80" y="80" fill="#e6edf3" font-size="12" font-family="monospace" text-anchor="start">新西兰 🇳🇿 vs 比利时 🇧🇪</text>
<rect x="310" y="70" width="16" height="10" fill="#3fb950" rx="2"/>
<rect x="326" y="70" width="38" height="10" fill="#d2991d"/>
<rect x="364" y="70" width="125" height="10" fill="#f85149" rx="2"/>
<text x="310" y="88" fill="#8b949e" font-size="9" font-family="monospace" text-anchor="start">主9% / 平21% / 客70%</text>
<line x1="30" y1="94" x2="490" y2="94" stroke="#30363d" stroke-width="0.5"/>
<text x="30" y="118" fill="#8b949e" font-size="10" font-family="monospace" text-anchor="start">6/21</text>
<text x="80" y="118" fill="#e6edf3" font-size="12" font-family="monospace" text-anchor="start">乌拉圭 🇺🇾 vs 西班牙 🇪🇸</text>
<rect x="310" y="108" width="30" height="10" fill="#3fb950" rx="2"/>
<rect x="340" y="108" width="46" height="10" fill="#d2991d"/>
<rect x="387" y="108" width="102" height="10" fill="#f85149" rx="2"/>
<text x="310" y="126" fill="#8b949e" font-size="9" font-family="monospace" text-anchor="start">主17% / 平26% / 客57%</text>
<line x1="30" y1="132" x2="490" y2="132" stroke="#30363d" stroke-width="0.5"/>
<text x="30" y="156" fill="#8b949e" font-size="10" font-family="monospace" text-anchor="start">6/21</text>
<text x="80" y="156" fill="#e6edf3" font-size="12" font-family="monospace" text-anchor="start">佛得角 🇨🇻 vs 沙特 🇸🇦</text>
<rect x="310" y="146" width="52" height="10" fill="#3fb950" rx="2"/>
<rect x="362" y="146" width="51" height="10" fill="#d2991d"/>
<rect x="413" y="146" width="76" height="10" fill="#f85149" rx="2"/>
<text x="310" y="164" fill="#8b949e" font-size="9" font-family="monospace" text-anchor="start">主29% / 平29% / 客42%</text>
<line x1="30" y1="170" x2="490" y2="170" stroke="#30363d" stroke-width="0.5"/>
<text x="30" y="194" fill="#8b949e" font-size="10" font-family="monospace" text-anchor="start">6/22</text>
<text x="80" y="194" fill="#e6edf3" font-size="12" font-family="monospace" text-anchor="start">塞内加尔 🇸🇳 vs 伊拉克 🇮🇶</text>
<rect x="310" y="184" width="117" height="10" fill="#3fb950" rx="2"/>
<rect x="427" y="184" width="41" height="10" fill="#d2991d"/>
<rect x="469" y="184" width="20" height="10" fill="#f85149" rx="2"/>
<text x="310" y="202" fill="#8b949e" font-size="9" font-family="monospace" text-anchor="start">主65% / 平23% / 客12%</text>
<line x1="30" y1="208" x2="490" y2="208" stroke="#30363d" stroke-width="0.5"/>
<text x="30" y="232" fill="#8b949e" font-size="10" font-family="monospace" text-anchor="start">6/22</text>
<text x="80" y="232" fill="#e6edf3" font-size="12" font-family="monospace" text-anchor="start">挪威 🇳🇴 vs 法国 🇫🇷</text>
<rect x="310" y="222" width="39" height="10" fill="#3fb950" rx="2"/>
<rect x="349" y="222" width="49" height="10" fill="#d2991d"/>
<rect x="398" y="222" width="91" height="10" fill="#f85149" rx="2"/>
<text x="310" y="240" fill="#8b949e" font-size="9" font-family="monospace" text-anchor="start">主22% / 平27% / 客51%</text>
<text x="490" y="300" fill="#8b949e" font-size="9" font-family="monospace" text-anchor="end">更新 2026-06-21 23:56 CST</text>
</svg>