<svg xmlns="http://www.w3.org/2000/svg" viewBox="0 0 520 320" width="780" height="480">
<rect x="0" y="0" width="520" height="320" fill="#0d1117"/>
<rect x="12" y="10" width="496" height="300" fill="#161b22" rx="8"/>
<text x="30" y="38" fill="#58a6ff" font-size="18" font-family="monospace" text-anchor="start" font-weight="bold">📅 即将到来 / Upcoming Predictions</text>
<text x="30" y="80" fill="#8b949e" font-size="10" font-family="monospace" text-anchor="start">6/28</text>
<text x="80" y="80" fill="#e6edf3" font-size="12" font-family="monospace" text-anchor="start">巴西 🇧🇷 vs 澳大利亚 🇦🇺</text>
<rect x="310" y="70" width="103" height="10" fill="#3fb950" rx="2"/>
<rect x="413" y="70" width="46" height="10" fill="#d2991d"/>
<rect x="459" y="70" width="30" height="10" fill="#f85149" rx="2"/>
<text x="310" y="88" fill="#8b949e" font-size="9" font-family="monospace" text-anchor="start">主58% / 平26% / 客17%</text>
<line x1="30" y1="94" x2="490" y2="94" stroke="#30363d" stroke-width="0.5"/>
<text x="30" y="118" fill="#8b949e" font-size="10" font-family="monospace" text-anchor="start">6/28</text>
<text x="80" y="118" fill="#e6edf3" font-size="12" font-family="monospace" text-anchor="start">德国 🇩🇪 vs 日本 🇯🇵</text>
<rect x="310" y="108" width="85" height="10" fill="#3fb950" rx="2"/>
<rect x="395" y="108" width="50" height="10" fill="#d2991d"/>
<rect x="445" y="108" width="44" height="10" fill="#f85149" rx="2"/>
<text x="310" y="126" fill="#8b949e" font-size="9" font-family="monospace" text-anchor="start">主48% / 平28% / 客25%</text>
<line x1="30" y1="132" x2="490" y2="132" stroke="#30363d" stroke-width="0.5"/>
<text x="30" y="156" fill="#8b949e" font-size="10" font-family="monospace" text-anchor="start">6/28</text>
<text x="80" y="156" fill="#e6edf3" font-size="12" font-family="monospace" text-anchor="start">埃及 🇪🇬 vs 乌拉圭 🇺🇾</text>
<rect x="310" y="146" width="37" height="10" fill="#3fb950" rx="2"/>
<rect x="347" y="146" width="48" height="10" fill="#d2991d"/>
<rect x="396" y="146" width="93" height="10" fill="#f85149" rx="2"/>
<text x="310" y="164" fill="#8b949e" font-size="9" font-family="monospace" text-anchor="start">主21% / 平27% / 客52%</text>
<line x1="30" y1="170" x2="490" y2="170" stroke="#30363d" stroke-width="0.5"/>
<text x="30" y="194" fill="#8b949e" font-size="10" font-family="monospace" text-anchor="start">6/29</text>
<text x="80" y="194" fill="#e6edf3" font-size="12" font-family="monospace" text-anchor="start">法国 🇫🇷 vs 奥地利 🇦🇹</text>
<rect x="310" y="184" width="126" height="10" fill="#3fb950" rx="2"/>
<rect x="436" y="184" width="37" height="10" fill="#d2991d"/>
<rect x="474" y="184" width="15" height="10" fill="#f85149" rx="2"/>
<text x="310" y="202" fill="#8b949e" font-size="9" font-family="monospace" text-anchor="start">主70% / 平21% / 客9%</text>
<line x1="30" y1="208" x2="490" y2="208" stroke="#30363d" stroke-width="0.5"/>
<text x="30" y="232" fill="#8b949e" font-size="10" font-family="monospace" text-anchor="start">6/29</text>
<text x="80" y="232" fill="#e6edf3" font-size="12" font-family="monospace" text-anchor="start">哥伦比亚 🇨🇴 vs 加纳 🇬🇭</text>
<rect x="310" y="222" width="111" height="10" fill="#3fb950" rx="2"/>
<rect x="421" y="222" width="43" height="10" fill="#d2991d"/>
<rect x="465" y="222" width="24" height="10" fill="#f85149" rx="2"/>
<text x="310" y="240" fill="#8b949e" font-size="9" font-family="monospace" text-anchor="start">主62% / 平24% / 客14%</text>
<text x="490" y="300" fill="#8b949e" font-size="9" font-family="monospace" text-anchor="end">更新 2026-06-26 13:11 CST</text>
</svg>