<svg xmlns="http://www.w3.org/2000/svg" viewBox="0 0 520 320" width="780" height="480">
<rect x="0" y="0" width="520" height="320" fill="#0d1117"/>
<rect x="12" y="10" width="496" height="300" fill="#161b22" rx="8"/>
<text x="30" y="38" fill="#58a6ff" font-size="18" font-family="monospace" text-anchor="start" font-weight="bold">📅 即将到来 / Upcoming Predictions</text>
<text x="30" y="80" fill="#8b949e" font-size="10" font-family="monospace" text-anchor="start">6/22</text>
<text x="80" y="80" fill="#e6edf3" font-size="12" font-family="monospace" text-anchor="start">挪威 🇳🇴 vs 法国 🇫🇷</text>
<rect x="310" y="70" width="39" height="10" fill="#3fb950" rx="2"/>
<rect x="349" y="70" width="49" height="10" fill="#d2991d"/>
<rect x="398" y="70" width="91" height="10" fill="#f85149" rx="2"/>
<text x="310" y="88" fill="#8b949e" font-size="9" font-family="monospace" text-anchor="start">主22% / 平27% / 客51%</text>
<line x1="30" y1="94" x2="490" y2="94" stroke="#30363d" stroke-width="0.5"/>
<text x="30" y="118" fill="#8b949e" font-size="10" font-family="monospace" text-anchor="start">6/22</text>
<text x="80" y="118" fill="#e6edf3" font-size="12" font-family="monospace" text-anchor="start">约旦 🇯🇴 vs 阿根廷 🇦🇷</text>
<rect x="310" y="108" width="4" height="10" fill="#3fb950" rx="2"/>
<rect x="314" y="108" width="24" height="10" fill="#d2991d"/>
<rect x="339" y="108" width="150" height="10" fill="#f85149" rx="2"/>
<text x="310" y="126" fill="#8b949e" font-size="9" font-family="monospace" text-anchor="start">主3% / 平14% / 客84%</text>
<line x1="30" y1="132" x2="490" y2="132" stroke="#30363d" stroke-width="0.5"/>
<text x="30" y="156" fill="#8b949e" font-size="10" font-family="monospace" text-anchor="start">6/22</text>
<text x="80" y="156" fill="#e6edf3" font-size="12" font-family="monospace" text-anchor="start">阿尔及利亚 🇩🇿 vs 奥地利 🇦🇹</text>
<rect x="310" y="146" width="61" height="10" fill="#3fb950" rx="2"/>
<rect x="371" y="146" width="52" height="10" fill="#d2991d"/>
<rect x="423" y="146" width="66" height="10" fill="#f85149" rx="2"/>
<text x="310" y="164" fill="#8b949e" font-size="9" font-family="monospace" text-anchor="start">主34% / 平29% / 客37%</text>
<line x1="30" y1="170" x2="490" y2="170" stroke="#30363d" stroke-width="0.5"/>
<text x="30" y="194" fill="#8b949e" font-size="10" font-family="monospace" text-anchor="start">6/23</text>
<text x="80" y="194" fill="#e6edf3" font-size="12" font-family="monospace" text-anchor="start">克罗地亚 🇭🇷 vs 加纳 🇬🇭</text>
<rect x="310" y="184" width="105" height="10" fill="#3fb950" rx="2"/>
<rect x="415" y="184" width="45" height="10" fill="#d2991d"/>
<rect x="461" y="184" width="28" height="10" fill="#f85149" rx="2"/>
<text x="310" y="202" fill="#8b949e" font-size="9" font-family="monospace" text-anchor="start">主59% / 平25% / 客16%</text>
<line x1="30" y1="208" x2="490" y2="208" stroke="#30363d" stroke-width="0.5"/>
<text x="30" y="232" fill="#8b949e" font-size="10" font-family="monospace" text-anchor="start">6/23</text>
<text x="80" y="232" fill="#e6edf3" font-size="12" font-family="monospace" text-anchor="start">巴拿马 🇵🇦 vs 英格兰 🏴󠁧󠁢󠁥󠁮󠁧󠁿</text>
<rect x="310" y="222" width="7" height="10" fill="#3fb950" rx="2"/>
<rect x="317" y="222" width="29" height="10" fill="#d2991d"/>
<rect x="346" y="222" width="143" height="10" fill="#f85149" rx="2"/>
<text x="310" y="240" fill="#8b949e" font-size="9" font-family="monospace" text-anchor="start">主4% / 平16% / 客80%</text>
<text x="490" y="300" fill="#8b949e" font-size="9" font-family="monospace" text-anchor="end">更新 2026-06-22 05:18 CST</text>
</svg>