<svg xmlns="http://www.w3.org/2000/svg" viewBox="0 0 520 320" width="780" height="480">
<rect x="0" y="0" width="520" height="320" fill="#0d1117"/>
<rect x="12" y="10" width="496" height="300" fill="#161b22" rx="8"/>
<text x="30" y="38" fill="#58a6ff" font-size="18" font-family="monospace" text-anchor="start" font-weight="bold">📅 即将到来 / Upcoming Predictions</text>
<text x="30" y="80" fill="#8b949e" font-size="10" font-family="monospace" text-anchor="start">6/23</text>
<text x="80" y="80" fill="#e6edf3" font-size="12" font-family="monospace" text-anchor="start">巴拿马 🇵🇦 vs 英格兰 🏴󠁧󠁢󠁥󠁮󠁧󠁿</text>
<rect x="310" y="70" width="7" height="10" fill="#3fb950" rx="2"/>
<rect x="317" y="70" width="29" height="10" fill="#d2991d"/>
<rect x="346" y="70" width="143" height="10" fill="#f85149" rx="2"/>
<text x="310" y="88" fill="#8b949e" font-size="9" font-family="monospace" text-anchor="start">主4% / 平16% / 客80%</text>
<line x1="30" y1="94" x2="490" y2="94" stroke="#30363d" stroke-width="0.5"/>
<text x="30" y="118" fill="#8b949e" font-size="10" font-family="monospace" text-anchor="start">6/23</text>
<text x="80" y="118" fill="#e6edf3" font-size="12" font-family="monospace" text-anchor="start">哥伦比亚 🇨🇴 vs 葡萄牙 🇵🇹</text>
<rect x="310" y="108" width="50" height="10" fill="#3fb950" rx="2"/>
<rect x="360" y="108" width="51" height="10" fill="#d2991d"/>
<rect x="411" y="108" width="78" height="10" fill="#f85149" rx="2"/>
<text x="310" y="126" fill="#8b949e" font-size="9" font-family="monospace" text-anchor="start">主28% / 平29% / 客43%</text>
<line x1="30" y1="132" x2="490" y2="132" stroke="#30363d" stroke-width="0.5"/>
<text x="30" y="156" fill="#8b949e" font-size="10" font-family="monospace" text-anchor="start">6/23</text>
<text x="80" y="156" fill="#e6edf3" font-size="12" font-family="monospace" text-anchor="start">刚果(金) 🇨🇩 vs 乌兹别克斯坦 🇺🇿</text>
<rect x="310" y="146" width="67" height="10" fill="#3fb950" rx="2"/>
<rect x="377" y="146" width="52" height="10" fill="#d2991d"/>
<rect x="429" y="146" width="60" height="10" fill="#f85149" rx="2"/>
<text x="310" y="164" fill="#8b949e" font-size="9" font-family="monospace" text-anchor="start">主37% / 平29% / 客34%</text>
<text x="490" y="300" fill="#8b949e" font-size="9" font-family="monospace" text-anchor="end">更新 2026-06-23 20:36 CST</text>
</svg>